<svg width="398" height="307" viewBox="0 0 398 307" fill="none" xmlns="http://www.w3.org/2000/svg">
<g filter="url(#filter0_d_1_8)">
<rect x="2" y="2" width="386" height="295" rx="10" fill="#313338"/>
<circle cx="34.5" cy="34.5" r="12.5" fill="#F24B4B"/>
<circle cx="74.5" cy="34.5" r="12.5" fill="#ECB936"/>
<circle cx="114.5" cy="34.5" r="12.5" fill="#6FD980"/>
<path d="M34.944 76.872V98.36H30.8V81.128L26.08 84.056L24.272 81.128L31.216 76.872H34.944ZM39.248 95.752V99H25.44V95.752H39.248ZM30.752 118.392C32.3413 118.392 33.6747 118.675 34.752 119.24C35.84 119.805 36.6613 120.568 37.216 121.528C37.7707 122.477 38.048 123.523 38.048 124.664C38.048 125.603 37.888 126.52 37.568 127.416C37.248 128.312 36.7253 129.256 36 130.248C35.2853 131.24 34.336 132.344 33.152 133.56C31.968 134.765 30.5067 136.141 28.768 137.688H38.56L38.096 141H23.936V137.912C25.4613 136.44 26.7787 135.144 27.888 134.024C28.9973 132.893 29.9253 131.896 30.672 131.032C31.4293 130.168 32.0267 129.395 32.464 128.712C32.912 128.019 33.232 127.373 33.424 126.776C33.616 126.179 33.712 125.581 33.712 124.984C33.712 123.971 33.4187 123.171 32.832 122.584C32.256 121.997 31.4453 121.704 30.4 121.704C29.472 121.704 28.6827 121.885 28.032 122.248C27.392 122.6 26.7627 123.176 26.144 123.976L23.488 121.96C24.3307 120.829 25.3333 119.955 26.496 119.336C27.6587 118.707 29.0773 118.392 30.752 118.392ZM30.672 160.392C32.1973 160.392 33.4987 160.648 34.576 161.16C35.664 161.661 36.496 162.339 37.072 163.192C37.648 164.045 37.936 164.984 37.936 166.008C37.936 166.925 37.744 167.741 37.36 168.456C36.9867 169.16 36.464 169.747 35.792 170.216C35.1307 170.685 34.3627 171.032 33.488 171.256C34.4587 171.373 35.328 171.64 36.096 172.056C36.8747 172.461 37.4933 173.048 37.952 173.816C38.4107 174.573 38.64 175.544 38.64 176.728C38.64 177.976 38.304 179.112 37.632 180.136C36.96 181.16 36.0053 181.976 34.768 182.584C33.5413 183.181 32.0853 183.48 30.4 183.48C28.896 183.48 27.504 183.213 26.224 182.68C24.944 182.136 23.856 181.341 22.96 180.296L25.44 178.056C26.0693 178.792 26.7893 179.331 27.6 179.672C28.4213 180.013 29.2747 180.184 30.16 180.184C31.408 180.184 32.4053 179.864 33.152 179.224C33.9093 178.573 34.288 177.661 34.288 176.488C34.288 175.613 34.1227 174.915 33.792 174.392C33.4613 173.859 32.992 173.475 32.384 173.24C31.7867 172.995 31.0773 172.872 30.256 172.872H28.288L28.784 169.864H30.176C30.848 169.864 31.456 169.747 32 169.512C32.5547 169.277 32.992 168.92 33.312 168.44C33.6427 167.96 33.808 167.357 33.808 166.632C33.808 165.672 33.472 164.925 32.8 164.392C32.128 163.848 31.2853 163.576 30.272 163.576C29.3547 163.576 28.5387 163.747 27.824 164.088C27.1093 164.429 26.416 164.915 25.744 165.544L23.552 163.224C24.5333 162.275 25.616 161.565 26.8 161.096C27.9947 160.627 29.2853 160.392 30.672 160.392ZM30 202.392L33.584 203.752L28.112 216.888H39.424V220.104H23.728V217.224L30 202.392ZM36.992 211.224V225H32.928L32.88 217.4L33.424 211.224H36.992ZM38.16 244.872L37.664 247.976H29.344V253.512C29.9307 253.224 30.5173 253.021 31.104 252.904C31.6907 252.787 32.256 252.728 32.8 252.728C33.9627 252.728 35.008 253.011 35.936 253.576C36.8747 254.141 37.6107 254.957 38.144 256.024C38.688 257.08 38.96 258.349 38.96 259.832C38.96 261.315 38.6133 262.637 37.92 263.8C37.2373 264.952 36.2773 265.853 35.04 266.504C33.8027 267.155 32.352 267.48 30.688 267.48C29.184 267.48 27.8453 267.203 26.672 266.648C25.5093 266.093 24.512 265.347 23.68 264.408L26.144 262.12C26.7307 262.803 27.3867 263.32 28.112 263.672C28.8373 264.013 29.616 264.184 30.448 264.184C31.7173 264.184 32.7253 263.8 33.472 263.032C34.2187 262.253 34.592 261.192 34.592 259.848C34.592 258.835 34.448 258.029 34.16 257.432C33.872 256.835 33.4773 256.403 32.976 256.136C32.4747 255.869 31.8987 255.736 31.248 255.736C30.7573 255.736 30.272 255.795 29.792 255.912C29.3227 256.019 28.816 256.205 28.272 256.472H25.312V244.872H38.16Z" fill="white" fill-opacity="0.5"/>
<path d="M164.105 87.8C164.105 89.24 164.222 90.5573 164.457 91.752C164.691 92.936 165.059 94.0613 165.561 95.128C166.062 96.184 166.713 97.2347 167.513 98.28C168.323 99.3253 169.305 100.435 170.457 101.608L168.057 103.848C166.35 102.408 164.878 100.904 163.641 99.336C162.414 97.768 161.465 96.0453 160.793 94.168C160.131 92.2907 159.801 90.168 159.801 87.8C159.801 85.432 160.131 83.3093 160.793 81.432C161.465 79.544 162.414 77.8213 163.641 76.264C164.878 74.696 166.35 73.192 168.057 71.752L170.457 73.992C169.358 75.112 168.409 76.1947 167.609 77.24C166.809 78.2853 166.147 79.3467 165.625 80.424C165.113 81.4907 164.729 82.6267 164.473 83.832C164.227 85.0267 164.105 86.3493 164.105 87.8ZM279.23 87.8C279.23 89.24 279.347 90.5573 279.582 91.752C279.816 92.936 280.184 94.0613 280.686 95.128C281.187 96.184 281.838 97.2347 282.638 98.28C283.448 99.3253 284.43 100.435 285.582 101.608L283.182 103.848C281.475 102.408 280.003 100.904 278.766 99.336C277.539 97.768 276.59 96.0453 275.918 94.168C275.256 92.2907 274.926 90.168 274.926 87.8C274.926 85.432 275.256 83.3093 275.918 81.432C276.59 79.544 277.539 77.8213 278.766 76.264C280.003 74.696 281.475 73.192 283.182 71.752L285.582 73.992C284.483 75.112 283.534 76.1947 282.734 77.24C281.934 78.2853 281.272 79.3467 280.75 80.424C280.238 81.4907 279.854 82.6267 279.598 83.832C279.352 85.0267 279.23 86.3493 279.23 87.8ZM302.033 87.8C302.033 86.3493 301.905 85.0267 301.649 83.832C301.404 82.6267 301.02 81.4907 300.497 80.424C299.985 79.3467 299.329 78.2853 298.529 77.24C297.729 76.1947 296.78 75.112 295.681 73.992L298.081 71.752C299.788 73.192 301.254 74.696 302.481 76.264C303.718 77.8213 304.668 79.544 305.329 81.432C306.001 83.3093 306.337 85.432 306.337 87.8C306.337 90.168 306.001 92.2907 305.329 94.168C304.668 96.0453 303.718 97.768 302.481 99.336C301.254 100.904 299.788 102.408 298.081 103.848L295.681 101.608C296.833 100.435 297.809 99.3253 298.609 98.28C299.42 97.2347 300.076 96.184 300.577 95.128C301.078 94.0613 301.446 92.936 301.681 91.752C301.916 90.5573 302.033 89.24 302.033 87.8ZM321.221 87.8C321.221 86.3493 321.093 85.0267 320.837 83.832C320.591 82.6267 320.207 81.4907 319.685 80.424C319.173 79.3467 318.517 78.2853 317.717 77.24C316.917 76.1947 315.967 75.112 314.869 73.992L317.269 71.752C318.975 73.192 320.442 74.696 321.669 76.264C322.906 77.8213 323.855 79.544 324.517 81.432C325.189 83.3093 325.525 85.432 325.525 87.8C325.525 90.168 325.189 92.2907 324.517 94.168C323.855 96.0453 322.906 97.768 321.669 99.336C320.442 100.904 318.975 102.408 317.269 103.848L314.869 101.608C316.021 100.435 316.997 99.3253 317.797 98.28C318.607 97.2347 319.263 96.184 319.765 95.128C320.266 94.0613 320.634 92.936 320.869 91.752C321.103 90.5573 321.221 89.24 321.221 87.8ZM202.48 129.8C202.48 131.24 202.597 132.557 202.832 133.752C203.066 134.936 203.434 136.061 203.936 137.128C204.437 138.184 205.088 139.235 205.888 140.28C206.698 141.325 207.68 142.435 208.832 143.608L206.432 145.848C204.725 144.408 203.253 142.904 202.016 141.336C200.789 139.768 199.84 138.045 199.168 136.168C198.506 134.291 198.176 132.168 198.176 129.8C198.176 127.432 198.506 125.309 199.168 123.432C199.84 121.544 200.789 119.821 202.016 118.264C203.253 116.696 204.725 115.192 206.432 113.752L208.832 115.992C207.733 117.112 206.784 118.195 205.984 119.24C205.184 120.285 204.522 121.347 204 122.424C203.488 123.491 203.104 124.627 202.848 125.832C202.602 127.027 202.48 128.349 202.48 129.8ZM225.283 129.8C225.283 128.349 225.155 127.027 224.899 125.832C224.654 124.627 224.27 123.491 223.747 122.424C223.235 121.347 222.579 120.285 221.779 119.24C220.979 118.195 220.03 117.112 218.931 115.992L221.331 113.752C223.038 115.192 224.504 116.696 225.731 118.264C226.968 119.821 227.918 121.544 228.579 123.432C229.251 125.309 229.587 127.432 229.587 129.8C229.587 132.168 229.251 134.291 228.579 136.168C227.918 138.045 226.968 139.768 225.731 141.336C224.504 142.904 223.038 144.408 221.331 145.848L218.931 143.608C220.083 142.435 221.059 141.325 221.859 140.28C222.67 139.235 223.326 138.184 223.827 137.128C224.328 136.061 224.696 134.936 224.931 133.752C225.166 132.557 225.283 131.24 225.283 129.8ZM242.647 135.048C243.532 135.048 244.268 135.347 244.855 135.944C245.441 136.531 245.735 137.251 245.735 138.104C245.735 138.627 245.644 139.165 245.463 139.72C245.281 140.264 245.009 140.947 244.647 141.768L242.295 147.128H239.319L240.887 140.632C240.001 140.056 239.559 139.208 239.559 138.088C239.559 137.235 239.857 136.515 240.455 135.928C241.052 135.341 241.783 135.048 242.647 135.048ZM242.647 124.072C243.521 124.072 244.252 124.376 244.839 124.984C245.436 125.592 245.735 126.312 245.735 127.144C245.735 127.987 245.436 128.712 244.839 129.32C244.252 129.928 243.521 130.232 242.647 130.232C241.783 130.232 241.052 129.928 240.455 129.32C239.857 128.712 239.559 127.987 239.559 127.144C239.559 126.579 239.697 126.067 239.975 125.608C240.252 125.139 240.625 124.765 241.095 124.488C241.564 124.211 242.081 124.072 242.647 124.072ZM183.292 171.8C183.292 173.24 183.409 174.557 183.644 175.752C183.879 176.936 184.247 178.061 184.748 179.128C185.249 180.184 185.9 181.235 186.7 182.28C187.511 183.325 188.492 184.435 189.644 185.608L187.244 187.848C185.537 186.408 184.065 184.904 182.828 183.336C181.601 181.768 180.652 180.045 179.98 178.168C179.319 176.291 178.988 174.168 178.988 171.8C178.988 169.432 179.319 167.309 179.98 165.432C180.652 163.544 181.601 161.821 182.828 160.264C184.065 158.696 185.537 157.192 187.244 155.752L189.644 157.992C188.545 159.112 187.596 160.195 186.796 161.24C185.996 162.285 185.335 163.347 184.812 164.424C184.3 165.491 183.916 166.627 183.66 167.832C183.415 169.027 183.292 170.349 183.292 171.8ZM206.096 171.8C206.096 170.349 205.968 169.027 205.712 167.832C205.466 166.627 205.082 165.491 204.56 164.424C204.048 163.347 203.392 162.285 202.592 161.24C201.792 160.195 200.842 159.112 199.744 157.992L202.144 155.752C203.85 157.192 205.317 158.696 206.544 160.264C207.781 161.821 208.73 163.544 209.392 165.432C210.064 167.309 210.4 169.432 210.4 171.8C210.4 174.168 210.064 176.291 209.392 178.168C208.73 180.045 207.781 181.768 206.544 183.336C205.317 184.904 203.85 186.408 202.144 187.848L199.744 185.608C200.896 184.435 201.872 183.325 202.672 182.28C203.482 181.235 204.138 180.184 204.64 179.128C205.141 178.061 205.509 176.936 205.744 175.752C205.978 174.557 206.096 173.24 206.096 171.8ZM223.459 177.048C224.344 177.048 225.08 177.347 225.667 177.944C226.254 178.531 226.547 179.251 226.547 180.104C226.547 180.627 226.456 181.165 226.275 181.72C226.094 182.264 225.822 182.947 225.459 183.768L223.107 189.128H220.131L221.699 182.632C220.814 182.056 220.371 181.208 220.371 180.088C220.371 179.235 220.67 178.515 221.267 177.928C221.864 177.341 222.595 177.048 223.459 177.048ZM223.459 166.072C224.334 166.072 225.064 166.376 225.651 166.984C226.248 167.592 226.547 168.312 226.547 169.144C226.547 169.987 226.248 170.712 225.651 171.32C225.064 171.928 224.334 172.232 223.459 172.232C222.595 172.232 221.864 171.928 221.267 171.32C220.67 170.712 220.371 169.987 220.371 169.144C220.371 168.579 220.51 168.067 220.787 167.608C221.064 167.139 221.438 166.765 221.907 166.488C222.376 166.211 222.894 166.072 223.459 166.072ZM183.292 213.8C183.292 215.24 183.409 216.557 183.644 217.752C183.879 218.936 184.247 220.061 184.748 221.128C185.249 222.184 185.9 223.235 186.7 224.28C187.511 225.325 188.492 226.435 189.644 227.608L187.244 229.848C185.537 228.408 184.065 226.904 182.828 225.336C181.601 223.768 180.652 222.045 179.98 220.168C179.319 218.291 178.988 216.168 178.988 213.8C178.988 211.432 179.319 209.309 179.98 207.432C180.652 205.544 181.601 203.821 182.828 202.264C184.065 200.696 185.537 199.192 187.244 197.752L189.644 199.992C188.545 201.112 187.596 202.195 186.796 203.24C185.996 204.285 185.335 205.347 184.812 206.424C184.3 207.491 183.916 208.627 183.66 209.832C183.415 211.027 183.292 212.349 183.292 213.8ZM206.096 213.8C206.096 212.349 205.968 211.027 205.712 209.832C205.466 208.627 205.082 207.491 204.56 206.424C204.048 205.347 203.392 204.285 202.592 203.24C201.792 202.195 200.842 201.112 199.744 199.992L202.144 197.752C203.85 199.192 205.317 200.696 206.544 202.264C207.781 203.821 208.73 205.544 209.392 207.432C210.064 209.309 210.4 211.432 210.4 213.8C210.4 216.168 210.064 218.291 209.392 220.168C208.73 222.045 207.781 223.768 206.544 225.336C205.317 226.904 203.85 228.408 202.144 229.848L199.744 227.608C200.896 226.435 201.872 225.325 202.672 224.28C203.482 223.235 204.138 222.184 204.64 221.128C205.141 220.061 205.509 218.936 205.744 217.752C205.978 216.557 206.096 215.24 206.096 213.8ZM223.459 219.048C224.344 219.048 225.08 219.347 225.667 219.944C226.254 220.531 226.547 221.251 226.547 222.104C226.547 222.627 226.456 223.165 226.275 223.72C226.094 224.264 225.822 224.947 225.459 225.768L223.107 231.128H220.131L221.699 224.632C220.814 224.056 220.371 223.208 220.371 222.088C220.371 221.235 220.67 220.515 221.267 219.928C221.864 219.341 222.595 219.048 223.459 219.048ZM223.459 208.072C224.334 208.072 225.064 208.376 225.651 208.984C226.248 209.592 226.547 210.312 226.547 211.144C226.547 211.987 226.248 212.712 225.651 213.32C225.064 213.928 224.334 214.232 223.459 214.232C222.595 214.232 221.864 213.928 221.267 213.32C220.67 212.712 220.371 211.987 220.371 211.144C220.371 210.579 220.51 210.067 220.787 209.608C221.064 209.139 221.438 208.765 221.907 208.488C222.376 208.211 222.894 208.072 223.459 208.072Z" fill="white"/>
<path d="M76.711 99H71.751L70.039 87.24L68.215 99H63.351L60.647 82.056H64.615L66.087 96.376L68.183 84.2H72.071L73.991 96.376L75.495 82.056H79.303L76.711 99ZM86.3625 74.888V83.96C87.0665 83.16 87.8558 82.5627 88.7305 82.168C89.6158 81.7733 90.5385 81.576 91.4985 81.576C93.0558 81.576 94.2238 82.0187 95.0025 82.904C95.7918 83.7787 96.1865 85.0107 96.1865 86.6V99H91.9625V87.544C91.9625 86.52 91.8025 85.7947 91.4825 85.368C91.1732 84.9413 90.6398 84.728 89.8825 84.728C89.4345 84.728 88.9972 84.8347 88.5705 85.048C88.1545 85.2507 87.7598 85.528 87.3865 85.88C87.0238 86.232 86.6825 86.6267 86.3625 87.064V99H82.1385V75.304L86.3625 74.888ZM111.07 82.056V96.008H115.534V99H101.886V96.008H106.846V85.048H102.046V82.056H111.07ZM108.334 73.512C109.113 73.512 109.742 73.752 110.222 74.232C110.713 74.712 110.958 75.3093 110.958 76.024C110.958 76.7387 110.713 77.3413 110.222 77.832C109.742 78.312 109.113 78.552 108.334 78.552C107.555 78.552 106.921 78.312 106.43 77.832C105.939 77.3413 105.694 76.7387 105.694 76.024C105.694 75.3093 105.939 74.712 106.43 74.232C106.921 73.752 107.555 73.512 108.334 73.512ZM128.578 75.288V94.072C128.578 94.808 128.791 95.3307 129.218 95.64C129.655 95.9493 130.242 96.104 130.978 96.104C131.436 96.104 131.879 96.056 132.306 95.96C132.732 95.8533 133.138 95.7253 133.522 95.576L134.562 98.456C134.028 98.7227 133.378 98.9573 132.61 99.16C131.852 99.3733 130.972 99.48 129.97 99.48C128.124 99.48 126.727 98.952 125.778 97.896C124.828 96.84 124.354 95.416 124.354 93.624V78.28H119.282V75.288H128.578ZM143.301 91.816C143.386 92.872 143.626 93.7307 144.021 94.392C144.426 95.0533 144.944 95.5387 145.573 95.848C146.202 96.1573 146.901 96.312 147.669 96.312C148.48 96.312 149.242 96.184 149.957 95.928C150.672 95.672 151.376 95.3147 152.069 94.856L153.829 97.272C153.04 97.9333 152.096 98.4667 150.997 98.872C149.909 99.2773 148.709 99.48 147.397 99.48C145.562 99.48 144.016 99.1013 142.757 98.344C141.509 97.5867 140.565 96.536 139.925 95.192C139.285 93.848 138.965 92.3013 138.965 90.552C138.965 88.8667 139.28 87.3467 139.909 85.992C140.538 84.6373 141.445 83.5653 142.629 82.776C143.813 81.976 145.242 81.576 146.917 81.576C148.474 81.576 149.818 81.9173 150.949 82.6C152.08 83.2827 152.954 84.264 153.573 85.544C154.192 86.8133 154.501 88.344 154.501 90.136C154.501 90.424 154.49 90.7173 154.469 91.016C154.458 91.3147 154.442 91.5813 154.421 91.816H143.301ZM146.933 84.552C145.909 84.552 145.066 84.92 144.405 85.656C143.754 86.3813 143.37 87.5333 143.253 89.112H150.389C150.368 87.6827 150.069 86.568 149.493 85.768C148.928 84.9573 148.074 84.552 146.933 84.552Z" fill="#EA9EEC"/>
<path d="M191.596 94.536C191.596 95.1867 191.692 95.6613 191.884 95.96C192.076 96.248 192.385 96.4667 192.812 96.616L191.9 99.448C190.993 99.352 190.22 99.128 189.58 98.776C188.951 98.4133 188.465 97.8747 188.124 97.16C187.484 97.9387 186.673 98.52 185.692 98.904C184.721 99.288 183.703 99.48 182.636 99.48C180.908 99.48 179.537 98.9893 178.524 98.008C177.511 97.0267 177.004 95.752 177.004 94.184C177.004 92.3813 177.708 90.9947 179.116 90.024C180.535 89.0427 182.54 88.552 185.132 88.552H187.5V87.64C187.5 86.6373 187.191 85.912 186.572 85.464C185.953 85.0053 185.063 84.776 183.9 84.776C183.356 84.776 182.673 84.8507 181.852 85C181.041 85.1387 180.204 85.3573 179.34 85.656L178.332 82.76C179.409 82.3547 180.492 82.056 181.58 81.864C182.679 81.672 183.676 81.576 184.572 81.576C186.951 81.576 188.716 82.0827 189.868 83.096C191.02 84.0987 191.596 85.5227 191.596 87.368V94.536ZM184.012 96.424C184.652 96.424 185.297 96.2427 185.948 95.88C186.609 95.5173 187.127 95.0107 187.5 94.36V91.064H185.836C184.268 91.064 183.132 91.3147 182.428 91.816C181.735 92.3173 181.388 93.0267 181.388 93.944C181.388 94.7333 181.612 95.3467 182.06 95.784C182.508 96.2107 183.159 96.424 184.012 96.424ZM211.024 99H206.064L204.352 87.24L202.528 99H197.664L194.96 82.056H198.928L200.4 96.376L202.496 84.2H206.384L208.304 96.376L209.808 82.056H213.616L211.024 99ZM229.971 94.536C229.971 95.1867 230.067 95.6613 230.259 95.96C230.451 96.248 230.76 96.4667 231.187 96.616L230.275 99.448C229.368 99.352 228.595 99.128 227.955 98.776C227.326 98.4133 226.84 97.8747 226.499 97.16C225.859 97.9387 225.048 98.52 224.067 98.904C223.096 99.288 222.078 99.48 221.011 99.48C219.283 99.48 217.912 98.9893 216.899 98.008C215.886 97.0267 215.379 95.752 215.379 94.184C215.379 92.3813 216.083 90.9947 217.491 90.024C218.91 89.0427 220.915 88.552 223.507 88.552H225.875V87.64C225.875 86.6373 225.566 85.912 224.947 85.464C224.328 85.0053 223.438 84.776 222.275 84.776C221.731 84.776 221.048 84.8507 220.227 85C219.416 85.1387 218.579 85.3573 217.715 85.656L216.707 82.76C217.784 82.3547 218.867 82.056 219.955 81.864C221.054 81.672 222.051 81.576 222.947 81.576C225.326 81.576 227.091 82.0827 228.243 83.096C229.395 84.0987 229.971 85.5227 229.971 87.368V94.536ZM222.387 96.424C223.027 96.424 223.672 96.2427 224.323 95.88C224.984 95.5173 225.502 95.0107 225.875 94.36V91.064H224.211C222.643 91.064 221.507 91.3147 220.803 91.816C220.11 92.3173 219.763 93.0267 219.763 93.944C219.763 94.7333 219.987 95.3467 220.435 95.784C220.883 96.2107 221.534 96.424 222.387 96.424ZM251.062 82.056L244.775 89.608L251.671 99H246.695L240.167 89.72L246.407 82.056H251.062ZM239.927 74.84V99H235.703V75.288L239.927 74.84ZM258.426 91.816C258.511 92.872 258.751 93.7307 259.146 94.392C259.551 95.0533 260.069 95.5387 260.698 95.848C261.327 96.1573 262.026 96.312 262.794 96.312C263.605 96.312 264.367 96.184 265.082 95.928C265.797 95.672 266.501 95.3147 267.194 94.856L268.954 97.272C268.165 97.9333 267.221 98.4667 266.122 98.872C265.034 99.2773 263.834 99.48 262.522 99.48C260.687 99.48 259.141 99.1013 257.882 98.344C256.634 97.5867 255.69 96.536 255.05 95.192C254.41 93.848 254.09 92.3013 254.09 90.552C254.09 88.8667 254.405 87.3467 255.034 85.992C255.663 84.6373 256.57 83.5653 257.754 82.776C258.938 81.976 260.367 81.576 262.042 81.576C263.599 81.576 264.943 81.9173 266.074 82.6C267.205 83.2827 268.079 84.264 268.698 85.544C269.317 86.8133 269.626 88.344 269.626 90.136C269.626 90.424 269.615 90.7173 269.594 91.016C269.583 91.3147 269.567 91.5813 269.546 91.816H258.426ZM262.058 84.552C261.034 84.552 260.191 84.92 259.53 85.656C258.879 86.3813 258.495 87.5333 258.378 89.112H265.514C265.493 87.6827 265.194 86.568 264.618 85.768C264.053 84.9573 263.199 84.552 262.058 84.552Z" fill="#F3F57C"/>
<path d="M362.94 72.168V75.192C362.246 75.192 361.638 75.256 361.116 75.384C360.593 75.512 360.193 75.736 359.916 76.056C359.649 76.376 359.542 76.8293 359.596 77.416L360.156 82.776C360.273 83.864 360.166 84.7547 359.836 85.448C359.516 86.1307 359.014 86.6587 358.332 87.032C357.649 87.3947 356.833 87.6507 355.884 87.8C356.886 87.96 357.724 88.2213 358.396 88.584C359.078 88.936 359.569 89.4533 359.868 90.136C360.177 90.808 360.273 91.704 360.156 92.824L359.596 98.184C359.542 98.76 359.649 99.208 359.916 99.528C360.193 99.8587 360.593 100.088 361.116 100.216C361.649 100.344 362.257 100.408 362.94 100.408V103.432C361.67 103.432 360.561 103.336 359.612 103.144C358.662 102.952 357.878 102.637 357.26 102.2C356.641 101.773 356.198 101.203 355.932 100.488C355.676 99.7733 355.601 98.8933 355.708 97.848L356.236 92.744C356.321 91.9547 356.209 91.3253 355.9 90.856C355.59 90.376 355.084 90.0347 354.38 89.832C353.686 89.6187 352.79 89.512 351.692 89.512V86.088C352.78 86.088 353.676 85.9867 354.38 85.784C355.084 85.5707 355.59 85.2293 355.9 84.76C356.209 84.28 356.321 83.6507 356.236 82.872L355.708 77.768C355.59 76.712 355.66 75.8267 355.916 75.112C356.182 74.3973 356.625 73.8267 357.244 73.4C357.862 72.9627 358.646 72.648 359.596 72.456C360.556 72.264 361.67 72.168 362.94 72.168ZM64.823 240.168C66.0923 240.168 67.2017 240.264 68.151 240.456C69.1003 240.648 69.8843 240.963 70.503 241.4C71.1217 241.827 71.5643 242.397 71.831 243.112C72.0977 243.827 72.1723 244.707 72.055 245.752L71.527 250.872C71.4417 251.651 71.5643 252.28 71.895 252.76C72.2257 253.229 72.7377 253.571 73.431 253.784C74.135 253.987 75.015 254.088 76.071 254.088V257.512C75.0257 257.512 74.151 257.619 73.447 257.832C72.743 258.035 72.2257 258.376 71.895 258.856C71.5643 259.325 71.4417 259.955 71.527 260.744L72.055 265.832C72.1723 266.888 72.0977 267.773 71.831 268.488C71.575 269.203 71.1377 269.773 70.519 270.2C69.9003 270.637 69.111 270.952 68.151 271.144C67.2017 271.336 66.0923 271.432 64.823 271.432V268.408C65.5163 268.408 66.1243 268.344 66.647 268.216C67.1697 268.088 67.5643 267.859 67.831 267.528C68.1083 267.208 68.2203 266.76 68.167 266.184L67.607 260.824C67.4897 259.704 67.591 258.808 67.911 258.136C68.2417 257.453 68.759 256.931 69.463 256.568C70.167 256.205 71.0203 255.955 72.023 255.816C70.9883 255.656 70.119 255.395 69.415 255.032C68.711 254.659 68.2043 254.131 67.895 253.448C67.5857 252.765 67.4897 251.875 67.607 250.776L68.167 245.416C68.2203 244.829 68.1083 244.376 67.831 244.056C67.5643 243.736 67.1697 243.512 66.647 243.384C66.1243 243.256 65.5163 243.192 64.823 243.192V240.168Z" fill="#E95DEC"/>
<path d="M107.774 138.36C108.766 138.36 109.561 138.189 110.158 137.848C110.766 137.496 111.07 137.005 111.07 136.376C111.07 135.96 110.969 135.608 110.766 135.32C110.574 135.032 110.19 134.765 109.614 134.52C109.038 134.264 108.174 133.981 107.022 133.672C105.934 133.395 104.979 133.053 104.158 132.648C103.347 132.232 102.713 131.699 102.254 131.048C101.806 130.397 101.582 129.576 101.582 128.584C101.582 127.592 101.859 126.723 102.414 125.976C102.969 125.219 103.769 124.632 104.814 124.216C105.87 123.789 107.139 123.576 108.622 123.576C110.073 123.576 111.342 123.768 112.43 124.152C113.518 124.525 114.451 124.995 115.23 125.56L113.502 128.136C112.819 127.699 112.078 127.347 111.278 127.08C110.489 126.803 109.635 126.664 108.718 126.664C107.726 126.664 107.001 126.808 106.542 127.096C106.094 127.384 105.87 127.784 105.87 128.296C105.87 128.659 105.982 128.968 106.206 129.224C106.441 129.469 106.857 129.709 107.454 129.944C108.062 130.168 108.926 130.44 110.046 130.76C111.145 131.059 112.099 131.411 112.91 131.816C113.731 132.221 114.366 132.76 114.814 133.432C115.262 134.104 115.486 134.984 115.486 136.072C115.486 137.299 115.129 138.312 114.414 139.112C113.699 139.912 112.755 140.509 111.582 140.904C110.419 141.288 109.155 141.48 107.79 141.48C106.19 141.48 104.793 141.251 103.598 140.792C102.403 140.333 101.39 139.741 100.558 139.016L102.75 136.552C103.411 137.075 104.163 137.507 105.006 137.848C105.859 138.189 106.782 138.36 107.774 138.36ZM135.138 140.056C134.508 140.472 133.746 140.813 132.85 141.08C131.954 141.347 130.983 141.48 129.938 141.48C127.868 141.48 126.311 140.947 125.266 139.88C124.22 138.803 123.698 137.373 123.698 135.592V127.048H120.018V124.056H123.698V120.328L127.922 119.816V124.056H133.522L133.09 127.048H127.922V135.576C127.922 136.451 128.135 137.091 128.562 137.496C128.988 137.901 129.676 138.104 130.626 138.104C131.234 138.104 131.788 138.035 132.29 137.896C132.802 137.747 133.266 137.56 133.682 137.336L135.138 140.056ZM143.925 124.056V135.8C143.925 136.717 144.106 137.363 144.469 137.736C144.832 138.109 145.36 138.296 146.053 138.296C146.714 138.296 147.36 138.099 147.989 137.704C148.618 137.299 149.13 136.787 149.525 136.168V124.056H153.749V141H150.069L149.845 138.92C149.237 139.752 148.458 140.387 147.509 140.824C146.56 141.261 145.578 141.48 144.565 141.48C142.933 141.48 141.712 141.021 140.901 140.104C140.101 139.176 139.701 137.912 139.701 136.312V124.056H143.925ZM168.713 116.84L172.937 117.288V141H169.193L168.937 139C168.414 139.747 167.758 140.349 166.969 140.808C166.179 141.256 165.262 141.48 164.217 141.48C162.787 141.48 161.603 141.107 160.665 140.36C159.737 139.613 159.043 138.568 158.585 137.224C158.137 135.869 157.913 134.296 157.913 132.504C157.913 130.776 158.179 129.24 158.713 127.896C159.246 126.552 160.014 125.496 161.016 124.728C162.03 123.96 163.23 123.576 164.617 123.576C165.449 123.576 166.206 123.72 166.889 124.008C167.571 124.296 168.179 124.723 168.713 125.288V116.84ZM165.753 126.728C164.686 126.728 163.843 127.192 163.225 128.12C162.617 129.037 162.313 130.504 162.313 132.52C162.313 133.939 162.441 135.075 162.697 135.928C162.953 136.771 163.315 137.379 163.785 137.752C164.254 138.125 164.809 138.312 165.449 138.312C166.153 138.312 166.771 138.104 167.305 137.688C167.849 137.261 168.318 136.733 168.713 136.104V128.392C168.318 127.869 167.875 127.464 167.385 127.176C166.905 126.877 166.361 126.728 165.753 126.728ZM193.42 124.056L187.676 141.032C187.207 142.419 186.599 143.608 185.852 144.6C185.105 145.592 184.161 146.376 183.02 146.952C181.889 147.539 180.503 147.885 178.86 147.992L178.332 144.936C179.473 144.776 180.385 144.536 181.068 144.216C181.751 143.896 182.295 143.475 182.7 142.952C183.116 142.429 183.473 141.779 183.772 141H182.332L176.78 124.056H181.244L185.084 138.184L189.084 124.056H193.42ZM109.854 180.088C110.601 180.088 111.299 179.949 111.95 179.672C112.611 179.395 113.246 179.043 113.854 178.616L115.774 181.32C115.027 181.949 114.126 182.467 113.07 182.872C112.014 183.277 110.883 183.48 109.678 183.48C107.907 183.48 106.387 183.112 105.118 182.376C103.859 181.629 102.889 180.595 102.206 179.272C101.534 177.939 101.198 176.392 101.198 174.632C101.198 172.893 101.539 171.341 102.222 169.976C102.915 168.6 103.897 167.523 105.166 166.744C106.446 165.965 107.971 165.576 109.742 165.576C110.958 165.576 112.057 165.752 113.038 166.104C114.03 166.445 114.937 166.957 115.758 167.64L113.886 170.232C113.257 169.795 112.606 169.464 111.934 169.24C111.273 169.005 110.585 168.888 109.87 168.888C108.622 168.888 107.603 169.341 106.814 170.248C106.035 171.144 105.646 172.605 105.646 174.632C105.646 175.965 105.827 177.032 106.19 177.832C106.563 178.632 107.065 179.208 107.694 179.56C108.334 179.912 109.054 180.088 109.854 180.088ZM127.554 165.576C129.239 165.576 130.668 165.944 131.842 166.68C133.015 167.416 133.906 168.456 134.514 169.8C135.132 171.133 135.442 172.696 135.442 174.488C135.442 176.323 135.132 177.912 134.514 179.256C133.895 180.6 132.999 181.64 131.826 182.376C130.652 183.112 129.223 183.48 127.538 183.48C125.863 183.48 124.434 183.123 123.25 182.408C122.076 181.683 121.18 180.653 120.562 179.32C119.943 177.976 119.634 176.376 119.634 174.52C119.634 172.749 119.943 171.192 120.562 169.848C121.18 168.504 122.082 167.459 123.266 166.712C124.45 165.955 125.879 165.576 127.554 165.576ZM127.554 168.76C126.37 168.76 125.484 169.224 124.898 170.152C124.322 171.08 124.034 172.536 124.034 174.52C124.034 176.525 124.322 177.992 124.898 178.92C125.474 179.837 126.354 180.296 127.538 180.296C128.722 180.296 129.602 179.837 130.178 178.92C130.754 177.992 131.042 176.515 131.042 174.488C131.042 172.515 130.754 171.069 130.178 170.152C129.602 169.224 128.727 168.76 127.554 168.76ZM149.525 158.84L153.749 159.288V183H150.005L149.749 181C149.226 181.747 148.57 182.349 147.781 182.808C146.992 183.256 146.074 183.48 145.029 183.48C143.6 183.48 142.416 183.107 141.477 182.36C140.549 181.613 139.856 180.568 139.397 179.224C138.949 177.869 138.725 176.296 138.725 174.504C138.725 172.776 138.992 171.24 139.525 169.896C140.058 168.552 140.826 167.496 141.829 166.728C142.842 165.96 144.042 165.576 145.429 165.576C146.261 165.576 147.018 165.72 147.701 166.008C148.384 166.296 148.992 166.723 149.525 167.288V158.84ZM146.565 168.728C145.498 168.728 144.656 169.192 144.037 170.12C143.429 171.037 143.125 172.504 143.125 174.52C143.125 175.939 143.253 177.075 143.509 177.928C143.765 178.771 144.128 179.379 144.597 179.752C145.066 180.125 145.621 180.312 146.261 180.312C146.965 180.312 147.584 180.104 148.117 179.688C148.661 179.261 149.13 178.733 149.525 178.104V170.392C149.13 169.869 148.688 169.464 148.197 169.176C147.717 168.877 147.173 168.728 146.565 168.728ZM162.489 175.816C162.574 176.872 162.814 177.731 163.209 178.392C163.614 179.053 164.131 179.539 164.76 179.848C165.39 180.157 166.089 180.312 166.857 180.312C167.667 180.312 168.43 180.184 169.145 179.928C169.859 179.672 170.563 179.315 171.257 178.856L173.017 181.272C172.227 181.933 171.283 182.467 170.185 182.872C169.097 183.277 167.897 183.48 166.585 183.48C164.75 183.48 163.203 183.101 161.945 182.344C160.697 181.587 159.753 180.536 159.113 179.192C158.473 177.848 158.153 176.301 158.153 174.552C158.153 172.867 158.467 171.347 159.097 169.992C159.726 168.637 160.633 167.565 161.817 166.776C163.001 165.976 164.43 165.576 166.105 165.576C167.662 165.576 169.006 165.917 170.137 166.6C171.267 167.283 172.142 168.264 172.76 169.544C173.379 170.813 173.689 172.344 173.689 174.136C173.689 174.424 173.678 174.717 173.657 175.016C173.646 175.315 173.63 175.581 173.609 175.816H162.489ZM166.121 168.552C165.097 168.552 164.254 168.92 163.593 169.656C162.942 170.381 162.558 171.533 162.441 173.112H169.577C169.555 171.683 169.257 170.568 168.681 169.768C168.115 168.957 167.262 168.552 166.121 168.552ZM110.078 207.576C111.571 207.576 112.766 207.944 113.662 208.68C114.569 209.405 115.225 210.435 115.63 211.768C116.046 213.101 116.254 214.675 116.254 216.488C116.254 218.227 116.003 219.773 115.502 221.128C115.001 222.483 114.265 223.549 113.294 224.328C112.334 225.096 111.15 225.48 109.742 225.48C108.014 225.48 106.617 224.867 105.55 223.64V231.528L101.326 231.976V208.056H105.038L105.262 210.12C105.934 209.245 106.686 208.605 107.518 208.2C108.35 207.784 109.203 207.576 110.078 207.576ZM108.846 210.744C108.131 210.744 107.502 210.957 106.958 211.384C106.425 211.811 105.955 212.339 105.55 212.968V220.552C105.934 221.128 106.371 221.56 106.862 221.848C107.353 222.136 107.907 222.28 108.526 222.28C109.603 222.28 110.425 221.832 110.99 220.936C111.566 220.029 111.854 218.563 111.854 216.536C111.854 215.107 111.737 213.971 111.502 213.128C111.278 212.275 110.942 211.667 110.494 211.304C110.046 210.931 109.497 210.744 108.846 210.744ZM128.578 201.288V220.072C128.578 220.808 128.791 221.331 129.218 221.64C129.655 221.949 130.242 222.104 130.978 222.104C131.436 222.104 131.879 222.056 132.306 221.96C132.732 221.853 133.138 221.725 133.522 221.576L134.562 224.456C134.028 224.723 133.378 224.957 132.61 225.16C131.852 225.373 130.972 225.48 129.97 225.48C128.124 225.48 126.727 224.952 125.778 223.896C124.828 222.84 124.354 221.416 124.354 219.624V204.28H119.282V201.288H128.578ZM153.221 220.536C153.221 221.187 153.317 221.661 153.509 221.96C153.701 222.248 154.01 222.467 154.437 222.616L153.525 225.448C152.618 225.352 151.845 225.128 151.205 224.776C150.576 224.413 150.09 223.875 149.749 223.16C149.109 223.939 148.298 224.52 147.317 224.904C146.346 225.288 145.328 225.48 144.261 225.48C142.533 225.48 141.162 224.989 140.149 224.008C139.136 223.027 138.629 221.752 138.629 220.184C138.629 218.381 139.333 216.995 140.741 216.024C142.16 215.043 144.165 214.552 146.757 214.552H149.125V213.64C149.125 212.637 148.816 211.912 148.197 211.464C147.578 211.005 146.688 210.776 145.525 210.776C144.981 210.776 144.298 210.851 143.477 211C142.666 211.139 141.829 211.357 140.965 211.656L139.957 208.76C141.034 208.355 142.117 208.056 143.205 207.864C144.304 207.672 145.301 207.576 146.197 207.576C148.576 207.576 150.341 208.083 151.493 209.096C152.645 210.099 153.221 211.523 153.221 213.368V220.536ZM145.637 222.424C146.277 222.424 146.922 222.243 147.573 221.88C148.234 221.517 148.752 221.011 149.125 220.36V217.064H147.461C145.893 217.064 144.757 217.315 144.053 217.816C143.36 218.317 143.013 219.027 143.013 219.944C143.013 220.733 143.237 221.347 143.685 221.784C144.133 222.211 144.784 222.424 145.637 222.424ZM174.233 208.056L168.489 225.032C168.019 226.419 167.411 227.608 166.665 228.6C165.918 229.592 164.974 230.376 163.833 230.952C162.702 231.539 161.315 231.885 159.673 231.992L159.145 228.936C160.286 228.776 161.198 228.536 161.881 228.216C162.563 227.896 163.107 227.475 163.513 226.952C163.929 226.429 164.286 225.779 164.585 225H163.145L157.593 208.056H162.057L165.897 222.184L169.897 208.056H174.233Z" fill="#F3F57C"/>
</g>
<defs>
<filter id="filter0_d_1_8" x="0" y="0" width="398" height="307" filterUnits="userSpaceOnUse" color-interpolation-filters="sRGB">
<feFlood flood-opacity="0" result="BackgroundImageFix"/>
<feColorMatrix in="SourceAlpha" type="matrix" values="0 0 0 0 0 0 0 0 0 0 0 0 0 0 0 0 0 0 127 0" result="hardAlpha"/>
<feOffset dx="4" dy="4"/>
<feGaussianBlur stdDeviation="3"/>
<feComposite in2="hardAlpha" operator="out"/>
<feColorMatrix type="matrix" values="0 0 0 0 0 0 0 0 0 0 0 0 0 0 0 0 0 0 0.25 0"/>
<feBlend mode="normal" in2="BackgroundImageFix" result="effect1_dropShadow_1_8"/>
<feBlend mode="normal" in="SourceGraphic" in2="effect1_dropShadow_1_8" result="shape"/>
</filter>
</defs>
</svg>
