<svg width="675" height="440" viewBox="0 0 675 440" fill="none" xmlns="http://www.w3.org/2000/svg">
<g clip-path="url(#clip0_33_131)">
<path d="M35.2176 438.519C35.1724 438.304 30.8052 416.762 39.7242 398.87C48.6431 380.979 67.6813 373.089 67.8726 373.011L68.7427 372.658L68.9482 373.639C68.9934 373.854 73.3605 395.396 64.4416 413.288C55.5231 431.179 36.4845 439.069 36.2932 439.147L35.4227 439.5L35.2176 438.519ZM67.5494 375.052C63.7359 376.826 48.685 384.592 41.1523 399.703C33.6187 414.815 35.8916 432.687 36.6164 437.106C40.4283 435.336 55.4732 427.582 63.0135 412.455C70.5466 397.343 68.2745 379.474 67.5494 375.052Z" fill="#F1F1F1"/>
<path d="M57.6258 407.012C41.5981 417.442 35.4253 438.161 35.4253 438.161C35.4253 438.161 55.2386 441.968 71.2663 431.537C87.2941 421.106 93.4669 400.388 93.4669 400.388C93.4669 400.388 73.6536 396.581 57.6258 407.012Z" fill="#F1F1F1"/>
<path d="M300.346 239.797C300.59 238.433 300.555 237.027 300.243 235.678C299.93 234.33 299.348 233.072 298.538 231.993C297.728 230.914 296.708 230.041 295.552 229.434C294.396 228.828 293.131 228.503 291.846 228.482L284.424 208.292L271.981 210.178L282.833 238.532C282.944 240.869 283.844 243.081 285.362 244.748C286.88 246.416 288.911 247.423 291.069 247.579C293.228 247.735 295.365 247.029 297.075 245.595C298.784 244.161 299.948 242.098 300.346 239.797Z" fill="#9F616A"/>
<path d="M277.422 232.703L273.566 222.758L249.54 173.287L250.847 81.7488L251.097 81.7128C266.471 79.5157 276.873 156.139 277.308 159.402L292.488 215.562L296.102 227.94L277.422 232.703Z" fill="#6C63FF"/>
<path d="M240.505 425.727L252.186 425.726L257.743 376.987L240.502 376.988L240.505 425.727Z" fill="#9F616A"/>
<path d="M237.525 421.601L260.53 421.6H260.531C264.419 421.6 268.148 423.271 270.897 426.245C273.647 429.219 275.191 433.253 275.192 437.459V437.974L237.526 437.975L237.525 421.601Z" fill="#2F2E41"/>
<path d="M133.097 406.474L142.682 413.699L173.002 377.149L158.857 366.486L133.097 406.474Z" fill="#9F616A"/>
<path d="M132.833 401.247L151.708 415.474L151.709 415.475C154.898 417.88 157.074 421.557 157.758 425.697C158.442 429.837 157.577 434.102 155.355 437.553L155.082 437.975L124.179 414.681L132.833 401.247Z" fill="#2F2E41"/>
<path d="M234.085 414.27L233.58 322.839L226.23 265.348L212.526 315.906L212.5 315.948L162.84 393.933L143.517 383.343L143.623 383.071C144.804 380.033 172.63 308.675 180.109 308.675C180.762 308.724 181.417 308.601 182.016 308.317C182.616 308.032 183.142 307.593 183.55 307.039C185.745 303.869 183.958 297.14 183.939 297.073C181.798 287.469 187.181 284.198 188.254 283.652L191.138 219.256L191.437 219.278L269.618 225.21L266.338 305.723L259.282 411.211L259.04 411.241L234.085 414.27Z" fill="#2F2E41"/>
<path d="M270.812 239.479L270.474 239.45L186.392 232.118L186.6 202.024L190.715 123.448L190.739 123.393L207.498 84.0355L219.379 78.2163L236.712 77.2296L236.754 77.2411L252.573 81.4805L269.028 209.26L270.812 239.479Z" fill="#6C63FF"/>
<path d="M239.428 67.1429C250.156 60.7992 254.099 46.2491 248.234 34.6443C242.37 23.0396 228.919 18.7747 218.191 25.1184C207.462 31.4622 203.52 46.0123 209.384 57.617C215.249 69.2218 228.7 73.4867 239.428 67.1429Z" fill="#9F616A"/>
<path d="M206.545 52.1419V42.8116C206.545 42.8116 199.589 33.9498 207.241 31.7175C207.241 31.7175 209.328 9.39463 227.413 19.812C227.413 19.812 252.455 15.3474 249.672 30.9735C249.672 30.9735 255.932 26.894 253.846 37.3114L249.81 54.0919C249.81 54.0919 251.759 43.0072 245.499 41.5189L242.021 39.2866C242.021 39.2866 232.282 49.704 217.675 37.0543C217.675 37.0543 211.415 35.4381 212.11 42.135C212.806 48.8318 206.545 52.1419 206.545 52.1419Z" fill="#2F2E41"/>
<path d="M226.504 217.006C226.518 215.616 226.25 214.24 225.719 212.974C225.188 211.708 224.407 210.583 223.431 209.679C222.455 208.775 221.307 208.114 220.069 207.742C218.831 207.369 217.533 207.295 216.265 207.524L205.614 189.102L193.686 193.373L209.065 219.16C209.562 221.438 210.815 223.44 212.585 224.785C214.355 226.131 216.52 226.728 218.669 226.462C220.819 226.197 222.804 225.087 224.248 223.344C225.692 221.602 226.495 219.346 226.504 217.006Z" fill="#9F616A"/>
<path d="M198.994 211.199L179.724 168.879L179.741 168.776C179.819 168.308 187.576 121.719 193.508 104.595C199.478 87.3619 207.65 83.902 207.995 83.7631L208.168 83.6937L215.495 91.2964L205.345 164.581L216.286 199.925L198.994 211.199Z" fill="#6C63FF"/>
<path d="M675 0.5H637.689V40.8592H675V0.5Z" fill="#F1F1F1"/>
<path d="M383.005 157.55H345.695V197.909H383.005V157.55Z" fill="#F1F1F1"/>
<path d="M366.636 180.224H661.612V18.6914H366.636V180.224Z" fill="white"/>
<path d="M664.045 182.856H364.203V16.0592H664.045V182.856ZM369.069 177.592H659.178V21.3235H369.069V177.592Z" fill="#E5E5E5"/>
<path d="M628.993 75.354H402.043V83.4953H628.993V75.354Z" fill="#E5E5E5"/>
<path d="M628.993 95.0976H402.043V103.239H628.993V95.0976Z" fill="#E5E5E5"/>
<path d="M628.993 124.25H586.816V131.315H628.993V124.25Z" fill="#6C63FF"/>
<path d="M309.839 439.465H0.811097C0.595981 439.465 0.389674 439.372 0.237564 439.208C0.085454 439.043 0 438.82 0 438.587C0 438.355 0.085454 438.131 0.237564 437.967C0.389674 437.802 0.595981 437.71 0.811097 437.71H309.839C310.054 437.71 310.261 437.802 310.413 437.967C310.565 438.131 310.65 438.355 310.65 438.587C310.65 438.82 310.565 439.043 310.413 439.208C310.261 439.372 310.054 439.465 309.839 439.465Z" fill="#CBCBCB"/>
</g>
<defs>
<clipPath id="clip0_33_131">
<rect width="675" height="439" fill="white" transform="translate(0 0.5)"/>
</clipPath>
</defs>
</svg>
