<svg width="653" height="483" viewBox="0 0 653 483" fill="none" xmlns="http://www.w3.org/2000/svg">
<g clip-path="url(#clip0_30_257)">
<path d="M380.289 85.1473C392.509 85.1473 402.415 75.0575 402.415 62.6112C402.415 50.1648 392.509 40.0751 380.289 40.0751C368.069 40.0751 358.163 50.1648 358.163 62.6112C358.163 75.0575 368.069 85.1473 380.289 85.1473Z" fill="#F2F2F2"/>
<path d="M551.924 419.609C584.812 394.095 600.52 351.221 590.686 310.322C590.441 309.306 590.183 308.292 589.912 307.281C583.393 283.004 567.264 259.93 543.756 252.173C524.018 245.66 502.473 250.669 481.881 248.078C441.458 242.994 410.119 209.68 388.069 174.801C366.018 139.921 349.071 100.878 319.77 72.0625C271.472 24.5647 192.686 14.3384 132.804 45.2559C72.9215 76.1735 34.7771 144.767 36.4038 213.129C38.0306 281.49 77.8748 346.849 135.738 381.526C156.995 394.265 181.581 403.289 206.048 400.131C227.278 397.391 246.568 385.772 267.699 382.323C300.92 376.899 333.93 392.199 362.664 410.027C391.398 427.855 419.154 448.987 451.806 457.252C483.512 465.278 522.791 442.21 551.924 419.609Z" fill="#F2F2F2"/>
<path d="M504.673 46.6915C503.952 46.202 503.223 45.7377 502.502 45.2651C481.663 31.6896 459.326 20.661 435.953 12.4072L430.534 88.5551H396.178V1.29136C394.015 0.835584 391.836 0.405132 389.656 0V88.5551H348.829C326.353 88.5551 304.797 79.4609 288.904 63.2731C273.011 47.0852 264.083 25.1298 264.083 2.23676C261.895 2.71786 259.724 3.23264 257.553 3.78126V88.5552H224.299L219.136 15.9437C195.118 25.3261 172.315 37.6644 151.237 52.6841C150.872 52.9373 150.507 53.1989 150.151 53.4521C148.32 54.7604 146.513 56.0939 144.715 57.4444V347.949H242.72L240.988 323.515L231.459 189.357H423.366L413.837 323.515L412.105 347.949H509.024V49.6287C507.582 48.6328 506.132 47.6537 504.673 46.6915ZM257.553 167.201H229.884L224.771 95.2061H257.553V167.201ZM389.657 167.201H343.186V165.775C343.186 165.089 343.053 164.41 342.795 163.777C342.537 163.144 342.159 162.568 341.683 162.084C341.206 161.599 340.641 161.215 340.019 160.954C339.396 160.692 338.73 160.558 338.056 160.559H317.854C317.181 160.559 316.515 160.693 315.894 160.955C315.272 161.217 314.708 161.602 314.232 162.086C313.757 162.571 313.379 163.146 313.122 163.779C312.865 164.412 312.732 165.09 312.733 165.775V167.201H264.083V95.2061H389.657V167.201ZM396.178 167.201V95.2061H430.062L424.949 167.201H396.178Z" fill="#3F3D56"/>
<path d="M0.5 366.552C7.69871 375.24 15.4849 383.405 23.8017 390.987L629.198 391.831C637.515 384.249 645.301 376.084 652.5 367.397L0.5 366.552Z" fill="#3F3D56"/>
<path d="M411.039 288.312V360.648C411.04 361.57 411.4 362.454 412.04 363.106C412.68 363.757 413.547 364.124 414.452 364.125H519.695C520.6 364.124 521.468 363.757 522.108 363.106C522.748 362.454 523.107 361.57 523.108 360.648V288.312C523.106 287.391 522.746 286.508 522.106 285.857C521.466 285.206 520.599 284.84 519.695 284.839H414.452C413.548 284.84 412.681 285.206 412.041 285.857C411.402 286.508 411.041 287.391 411.039 288.312Z" fill="#3F3D56"/>
<path d="M413.508 289.212V359.756C413.509 360.248 413.701 360.72 414.043 361.069C414.385 361.417 414.849 361.613 415.332 361.614H518.819C519.302 361.613 519.766 361.417 520.108 361.069C520.45 360.72 520.642 360.248 520.643 359.756V289.212C520.643 288.719 520.451 288.246 520.109 287.897C519.767 287.548 519.303 287.351 518.819 287.35H415.332C414.848 287.351 414.384 287.548 414.042 287.897C413.7 288.246 413.508 288.719 413.508 289.212Z" fill="#6C63FF"/>
<path d="M408.838 374.756C409.031 375.002 409.276 375.2 409.555 375.336C409.834 375.472 410.139 375.542 410.448 375.54H523.138C523.447 375.54 523.751 375.47 524.029 375.334C524.307 375.199 524.552 375.003 524.746 374.759C524.94 374.515 525.079 374.23 525.151 373.925C525.224 373.62 525.229 373.302 525.165 372.995L523.416 364.532C523.344 364.187 523.187 363.866 522.962 363.598C522.736 363.33 522.449 363.123 522.125 362.998C521.891 362.904 521.641 362.856 521.389 362.856H412.191C411.939 362.856 411.689 362.904 411.455 362.998C411.131 363.123 410.843 363.33 410.618 363.598C410.392 363.866 410.236 364.187 410.164 364.532L408.415 372.995C408.352 373.302 408.358 373.62 408.431 373.924C408.505 374.229 408.643 374.513 408.838 374.756Z" fill="#2F2E41"/>
<path d="M517.523 366.501H520.184C520.408 366.501 520.589 366.317 520.589 366.089V364.792C520.589 364.565 520.408 364.38 520.184 364.38H517.523C517.299 364.38 517.118 364.565 517.118 364.792V366.089C517.118 366.317 517.299 366.501 517.523 366.501Z" fill="#3F3D56"/>
<path d="M510.581 366.501H513.243C513.466 366.501 513.647 366.317 513.647 366.089V364.792C513.647 364.565 513.466 364.38 513.243 364.38H510.581C510.357 364.38 510.176 364.565 510.176 364.792V366.089C510.176 366.317 510.357 366.501 510.581 366.501Z" fill="#3F3D56"/>
<path d="M503.639 366.501H506.301C506.524 366.501 506.706 366.317 506.706 366.089V364.792C506.706 364.565 506.524 364.38 506.301 364.38H503.639C503.416 364.38 503.235 364.565 503.235 364.792V366.089C503.235 366.317 503.416 366.501 503.639 366.501Z" fill="#3F3D56"/>
<path d="M496.698 366.501H499.359C499.583 366.501 499.764 366.317 499.764 366.089V364.792C499.764 364.565 499.583 364.38 499.359 364.38H496.698C496.474 364.38 496.293 364.565 496.293 364.792V366.089C496.293 366.317 496.474 366.501 496.698 366.501Z" fill="#3F3D56"/>
<path d="M489.756 366.501H492.418C492.641 366.501 492.822 366.317 492.822 366.089V364.792C492.822 364.565 492.641 364.38 492.418 364.38H489.756C489.533 364.38 489.352 364.565 489.352 364.792V366.089C489.352 366.317 489.533 366.501 489.756 366.501Z" fill="#3F3D56"/>
<path d="M482.815 366.501H485.476C485.7 366.501 485.881 366.317 485.881 366.089V364.792C485.881 364.565 485.7 364.38 485.476 364.38H482.815C482.591 364.38 482.41 364.565 482.41 364.792V366.089C482.41 366.317 482.591 366.501 482.815 366.501Z" fill="#3F3D56"/>
<path d="M475.873 366.501H478.535C478.758 366.501 478.939 366.317 478.939 366.089V364.792C478.939 364.565 478.758 364.38 478.535 364.38H475.873C475.649 364.38 475.468 364.565 475.468 364.792V366.089C475.468 366.317 475.649 366.501 475.873 366.501Z" fill="#3F3D56"/>
<path d="M468.931 366.501H471.593C471.816 366.501 471.998 366.317 471.998 366.089V364.792C471.998 364.565 471.816 364.38 471.593 364.38H468.931C468.708 364.38 468.527 364.565 468.527 364.792V366.089C468.527 366.317 468.708 366.501 468.931 366.501Z" fill="#3F3D56"/>
<path d="M461.99 366.501H464.651C464.875 366.501 465.056 366.317 465.056 366.089V364.792C465.056 364.565 464.875 364.38 464.651 364.38H461.99C461.766 364.38 461.585 364.565 461.585 364.792V366.089C461.585 366.317 461.766 366.501 461.99 366.501Z" fill="#3F3D56"/>
<path d="M455.048 366.501H457.71C457.933 366.501 458.114 366.317 458.114 366.089V364.792C458.114 364.565 457.933 364.38 457.71 364.38H455.048C454.825 364.38 454.644 364.565 454.644 364.792V366.089C454.644 366.317 454.825 366.501 455.048 366.501Z" fill="#3F3D56"/>
<path d="M448.106 366.501H450.768C450.992 366.501 451.173 366.317 451.173 366.089V364.792C451.173 364.565 450.992 364.38 450.768 364.38H448.106C447.883 364.38 447.702 364.565 447.702 364.792V366.089C447.702 366.317 447.883 366.501 448.106 366.501Z" fill="#3F3D56"/>
<path d="M441.165 366.501H443.827C444.05 366.501 444.231 366.317 444.231 366.089V364.792C444.231 364.565 444.05 364.38 443.827 364.38H441.165C440.941 364.38 440.76 364.565 440.76 364.792V366.089C440.76 366.317 440.941 366.501 441.165 366.501Z" fill="#3F3D56"/>
<path d="M434.223 366.501H436.885C437.108 366.501 437.29 366.317 437.29 366.089V364.792C437.29 364.565 437.108 364.38 436.885 364.38H434.223C434 364.38 433.819 364.565 433.819 364.792V366.089C433.819 366.317 434 366.501 434.223 366.501Z" fill="#3F3D56"/>
<path d="M427.282 366.501H429.943C430.167 366.501 430.348 366.317 430.348 366.089V364.792C430.348 364.565 430.167 364.38 429.943 364.38H427.282C427.058 364.38 426.877 364.565 426.877 364.792V366.089C426.877 366.317 427.058 366.501 427.282 366.501Z" fill="#3F3D56"/>
<path d="M420.34 366.501H423.002C423.225 366.501 423.406 366.317 423.406 366.089V364.792C423.406 364.565 423.225 364.38 423.002 364.38H420.34C420.117 364.38 419.936 364.565 419.936 364.792V366.089C419.936 366.317 420.117 366.501 420.34 366.501Z" fill="#3F3D56"/>
<path d="M413.398 366.501H416.06C416.284 366.501 416.465 366.317 416.465 366.089V364.792C416.465 364.565 416.284 364.38 416.06 364.38H413.398C413.175 364.38 412.994 364.565 412.994 364.792V366.089C412.994 366.317 413.175 366.501 413.398 366.501Z" fill="#3F3D56"/>
<path d="M517.605 370.037H520.266C520.49 370.037 520.671 369.852 520.671 369.625V368.328C520.671 368.1 520.49 367.915 520.266 367.915H517.605C517.381 367.915 517.2 368.1 517.2 368.328V369.625C517.2 369.852 517.381 370.037 517.605 370.037Z" fill="#3F3D56"/>
<path d="M510.663 370.037H513.325C513.548 370.037 513.729 369.852 513.729 369.625V368.328C513.729 368.1 513.548 367.915 513.325 367.915H510.663C510.439 367.915 510.258 368.1 510.258 368.328V369.625C510.258 369.852 510.439 370.037 510.663 370.037Z" fill="#3F3D56"/>
<path d="M503.721 370.037H506.383C506.606 370.037 506.788 369.852 506.788 369.625V368.328C506.788 368.1 506.606 367.915 506.383 367.915H503.721C503.498 367.915 503.317 368.1 503.317 368.328V369.625C503.317 369.852 503.498 370.037 503.721 370.037Z" fill="#3F3D56"/>
<path d="M496.78 370.037H499.441C499.665 370.037 499.846 369.852 499.846 369.625V368.328C499.846 368.1 499.665 367.915 499.441 367.915H496.78C496.556 367.915 496.375 368.1 496.375 368.328V369.625C496.375 369.852 496.556 370.037 496.78 370.037Z" fill="#3F3D56"/>
<path d="M489.838 370.037H492.5C492.723 370.037 492.904 369.852 492.904 369.625V368.328C492.904 368.1 492.723 367.915 492.5 367.915H489.838C489.615 367.915 489.434 368.1 489.434 368.328V369.625C489.434 369.852 489.615 370.037 489.838 370.037Z" fill="#3F3D56"/>
<path d="M482.896 370.037H485.558C485.782 370.037 485.963 369.852 485.963 369.625V368.328C485.963 368.1 485.782 367.915 485.558 367.915H482.896C482.673 367.915 482.492 368.1 482.492 368.328V369.625C482.492 369.852 482.673 370.037 482.896 370.037Z" fill="#3F3D56"/>
<path d="M475.955 370.037H478.617C478.84 370.037 479.021 369.852 479.021 369.625V368.328C479.021 368.1 478.84 367.915 478.617 367.915H475.955C475.732 367.915 475.55 368.1 475.55 368.328V369.625C475.55 369.852 475.732 370.037 475.955 370.037Z" fill="#3F3D56"/>
<path d="M469.013 370.037H471.675C471.898 370.037 472.08 369.852 472.08 369.625V368.328C472.08 368.1 471.898 367.915 471.675 367.915H469.013C468.79 367.915 468.609 368.1 468.609 368.328V369.625C468.609 369.852 468.79 370.037 469.013 370.037Z" fill="#3F3D56"/>
<path d="M462.072 370.037H464.733C464.957 370.037 465.138 369.852 465.138 369.625V368.328C465.138 368.1 464.957 367.915 464.733 367.915H462.072C461.848 367.915 461.667 368.1 461.667 368.328V369.625C461.667 369.852 461.848 370.037 462.072 370.037Z" fill="#3F3D56"/>
<path d="M455.13 370.037H457.792C458.015 370.037 458.196 369.852 458.196 369.625V368.328C458.196 368.1 458.015 367.915 457.792 367.915H455.13C454.907 367.915 454.726 368.1 454.726 368.328V369.625C454.726 369.852 454.907 370.037 455.13 370.037Z" fill="#3F3D56"/>
<path d="M448.189 370.037H450.85C451.074 370.037 451.255 369.852 451.255 369.625V368.328C451.255 368.1 451.074 367.915 450.85 367.915H448.189C447.965 367.915 447.784 368.1 447.784 368.328V369.625C447.784 369.852 447.965 370.037 448.189 370.037Z" fill="#3F3D56"/>
<path d="M441.247 370.037H443.909C444.132 370.037 444.313 369.852 444.313 369.625V368.328C444.313 368.1 444.132 367.915 443.909 367.915H441.247C441.023 367.915 440.842 368.1 440.842 368.328V369.625C440.842 369.852 441.023 370.037 441.247 370.037Z" fill="#3F3D56"/>
<path d="M434.305 370.037H436.967C437.19 370.037 437.372 369.852 437.372 369.625V368.328C437.372 368.1 437.19 367.915 436.967 367.915H434.305C434.082 367.915 433.901 368.1 433.901 368.328V369.625C433.901 369.852 434.082 370.037 434.305 370.037Z" fill="#3F3D56"/>
<path d="M427.364 370.037H430.025C430.249 370.037 430.43 369.852 430.43 369.625V368.328C430.43 368.1 430.249 367.915 430.025 367.915H427.364C427.14 367.915 426.959 368.1 426.959 368.328V369.625C426.959 369.852 427.14 370.037 427.364 370.037Z" fill="#3F3D56"/>
<path d="M420.422 370.037H423.084C423.307 370.037 423.488 369.852 423.488 369.625V368.328C423.488 368.1 423.307 367.915 423.084 367.915H420.422C420.199 367.915 420.018 368.1 420.018 368.328V369.625C420.018 369.852 420.199 370.037 420.422 370.037Z" fill="#3F3D56"/>
<path d="M413.481 370.037H416.142C416.366 370.037 416.547 369.852 416.547 369.625V368.328C416.547 368.1 416.366 367.915 416.142 367.915H413.481C413.257 367.915 413.076 368.1 413.076 368.328V369.625C413.076 369.852 413.257 370.037 413.481 370.037Z" fill="#3F3D56"/>
<path d="M459.989 374.279H486.947C487.17 374.279 487.351 374.094 487.351 373.867V372.57C487.351 372.342 487.17 372.158 486.947 372.158H459.989C459.766 372.158 459.585 372.342 459.585 372.57V373.867C459.585 374.094 459.766 374.279 459.989 374.279Z" fill="#3F3D56"/>
<path d="M431.429 302.783H429.072C428.358 302.783 427.779 303.373 427.779 304.101C427.779 304.828 428.358 305.418 429.072 305.418H431.429C432.143 305.418 432.722 304.828 432.722 304.101C432.722 303.373 432.143 302.783 431.429 302.783Z" fill="white"/>
<path d="M458.379 302.783H456.023C455.308 302.783 454.729 303.373 454.729 304.101C454.729 304.828 455.308 305.418 456.023 305.418H458.379C459.093 305.418 459.673 304.828 459.673 304.101C459.673 303.373 459.093 302.783 458.379 302.783Z" fill="white"/>
<path d="M466.015 302.783H463.659C462.944 302.783 462.365 303.373 462.365 304.101C462.365 304.828 462.944 305.418 463.659 305.418H466.015C466.729 305.418 467.309 304.828 467.309 304.101C467.309 303.373 466.729 302.783 466.015 302.783Z" fill="white"/>
<path d="M451.049 302.563H436.403C435.689 302.563 435.109 303.153 435.109 303.881C435.109 304.609 435.689 305.199 436.403 305.199H451.049C451.763 305.199 452.342 304.609 452.342 303.881C452.342 303.153 451.763 302.563 451.049 302.563Z" fill="white"/>
<path d="M486.982 302.563H472.337C471.622 302.563 471.043 303.153 471.043 303.881C471.043 304.609 471.622 305.199 472.337 305.199H486.982C487.697 305.199 488.276 304.609 488.276 303.881C488.276 303.153 487.697 302.563 486.982 302.563Z" fill="white"/>
<path d="M438.615 308.731H436.259C435.545 308.731 434.965 309.321 434.965 310.048C434.965 310.776 435.545 311.366 436.259 311.366H438.615C439.33 311.366 439.909 310.776 439.909 310.048C439.909 309.321 439.33 308.731 438.615 308.731Z" fill="white"/>
<path d="M465.566 308.731H463.209C462.495 308.731 461.916 309.321 461.916 310.048C461.916 310.776 462.495 311.366 463.209 311.366H465.566C466.28 311.366 466.859 310.776 466.859 310.048C466.859 309.321 466.28 308.731 465.566 308.731Z" fill="white"/>
<path d="M473.202 308.731H470.845C470.131 308.731 469.552 309.321 469.552 310.048C469.552 310.776 470.131 311.366 470.845 311.366H473.202C473.916 311.366 474.495 310.776 474.495 310.048C474.495 309.321 473.916 308.731 473.202 308.731Z" fill="white"/>
<path d="M458.235 308.511H443.59C442.875 308.511 442.296 309.101 442.296 309.829C442.296 310.556 442.875 311.146 443.59 311.146H458.235C458.95 311.146 459.529 310.556 459.529 309.829C459.529 309.101 458.95 308.511 458.235 308.511Z" fill="white"/>
<path d="M494.169 308.511H479.523C478.809 308.511 478.23 309.101 478.23 309.829C478.23 310.556 478.809 311.146 479.523 311.146H494.169C494.883 311.146 495.462 310.556 495.462 309.829C495.462 309.101 494.883 308.511 494.169 308.511Z" fill="white"/>
<path d="M445.802 314.678H443.446C442.731 314.678 442.152 315.268 442.152 315.996C442.152 316.723 442.731 317.313 443.446 317.313H445.802C446.517 317.313 447.096 316.723 447.096 315.996C447.096 315.268 446.517 314.678 445.802 314.678Z" fill="white"/>
<path d="M472.752 314.678H470.396C469.682 314.678 469.103 315.268 469.103 315.996C469.103 316.723 469.682 317.313 470.396 317.313H472.752C473.467 317.313 474.046 316.723 474.046 315.996C474.046 315.268 473.467 314.678 472.752 314.678Z" fill="white"/>
<path d="M480.388 314.678H478.032C477.318 314.678 476.738 315.268 476.738 315.996C476.738 316.723 477.318 317.313 478.032 317.313H480.388C481.103 317.313 481.682 316.723 481.682 315.996C481.682 315.268 481.103 314.678 480.388 314.678Z" fill="white"/>
<path d="M465.422 314.459H450.776C450.062 314.459 449.483 315.049 449.483 315.776C449.483 316.504 450.062 317.094 450.776 317.094H465.422C466.136 317.094 466.716 316.504 466.716 315.776C466.716 315.049 466.136 314.459 465.422 314.459Z" fill="white"/>
<path d="M501.356 314.459H486.71C485.996 314.459 485.416 315.049 485.416 315.776C485.416 316.504 485.996 317.094 486.71 317.094H501.356C502.07 317.094 502.649 316.504 502.649 315.776C502.649 315.049 502.07 314.459 501.356 314.459Z" fill="white"/>
<path d="M452.989 320.626H450.633C449.918 320.626 449.339 321.216 449.339 321.943C449.339 322.671 449.918 323.261 450.633 323.261H452.989C453.703 323.261 454.283 322.671 454.283 321.943C454.283 321.216 453.703 320.626 452.989 320.626Z" fill="white"/>
<path d="M479.939 320.626H477.583C476.868 320.626 476.289 321.216 476.289 321.943C476.289 322.671 476.868 323.261 477.583 323.261H479.939C480.654 323.261 481.233 322.671 481.233 321.943C481.233 321.216 480.654 320.626 479.939 320.626Z" fill="white"/>
<path d="M487.575 320.626H485.219C484.504 320.626 483.925 321.216 483.925 321.943C483.925 322.671 484.504 323.261 485.219 323.261H487.575C488.29 323.261 488.869 322.671 488.869 321.943C488.869 321.216 488.29 320.626 487.575 320.626Z" fill="white"/>
<path d="M472.609 320.406H457.963C457.249 320.406 456.67 320.996 456.67 321.724C456.67 322.451 457.249 323.041 457.963 323.041H472.609C473.323 323.041 473.902 322.451 473.902 321.724C473.902 320.996 473.323 320.406 472.609 320.406Z" fill="white"/>
<path d="M458.379 344.276H456.023C455.308 344.276 454.729 344.866 454.729 345.593C454.729 346.321 455.308 346.911 456.023 346.911H458.379C459.093 346.911 459.673 346.321 459.673 345.593C459.673 344.866 459.093 344.276 458.379 344.276Z" fill="white"/>
<path d="M466.015 344.276H463.659C462.944 344.276 462.365 344.866 462.365 345.593C462.365 346.321 462.944 346.911 463.659 346.911H466.015C466.729 346.911 467.309 346.321 467.309 345.593C467.309 344.866 466.729 344.276 466.015 344.276Z" fill="white"/>
<path d="M486.982 344.495H472.337C471.622 344.495 471.043 345.085 471.043 345.813C471.043 346.541 471.622 347.131 472.337 347.131H486.982C487.697 347.131 488.276 346.541 488.276 345.813C488.276 345.085 487.697 344.495 486.982 344.495Z" fill="white"/>
<path d="M431.429 344.276H429.072C428.358 344.276 427.779 344.866 427.779 345.593C427.779 346.321 428.358 346.911 429.072 346.911H431.429C432.143 346.911 432.722 346.321 432.722 345.593C432.722 344.866 432.143 344.276 431.429 344.276Z" fill="white"/>
<path d="M451.049 344.495H436.403C435.689 344.495 435.109 345.085 435.109 345.813C435.109 346.541 435.689 347.131 436.403 347.131H451.049C451.763 347.131 452.342 346.541 452.342 345.813C452.342 345.085 451.763 344.495 451.049 344.495Z" fill="white"/>
<path d="M438.615 338.328H436.259C435.545 338.328 434.965 338.918 434.965 339.646C434.965 340.374 435.545 340.963 436.259 340.963H438.615C439.33 340.963 439.909 340.374 439.909 339.646C439.909 338.918 439.33 338.328 438.615 338.328Z" fill="white"/>
<path d="M465.566 338.328H463.209C462.495 338.328 461.916 338.918 461.916 339.646C461.916 340.374 462.495 340.963 463.209 340.963H465.566C466.28 340.963 466.859 340.374 466.859 339.646C466.859 338.918 466.28 338.328 465.566 338.328Z" fill="white"/>
<path d="M473.202 338.328H470.845C470.131 338.328 469.552 338.918 469.552 339.646C469.552 340.374 470.131 340.963 470.845 340.963H473.202C473.916 340.963 474.495 340.374 474.495 339.646C474.495 338.918 473.916 338.328 473.202 338.328Z" fill="white"/>
<path d="M458.235 338.548H443.59C442.875 338.548 442.296 339.138 442.296 339.866C442.296 340.593 442.875 341.183 443.59 341.183H458.235C458.95 341.183 459.529 340.593 459.529 339.866C459.529 339.138 458.95 338.548 458.235 338.548Z" fill="white"/>
<path d="M445.802 332.381H443.446C442.731 332.381 442.152 332.971 442.152 333.698C442.152 334.426 442.731 335.016 443.446 335.016H445.802C446.517 335.016 447.096 334.426 447.096 333.698C447.096 332.971 446.517 332.381 445.802 332.381Z" fill="white"/>
<path d="M472.752 332.381H470.396C469.682 332.381 469.103 332.971 469.103 333.698C469.103 334.426 469.682 335.016 470.396 335.016H472.752C473.467 335.016 474.046 334.426 474.046 333.698C474.046 332.971 473.467 332.381 472.752 332.381Z" fill="white"/>
<path d="M480.388 332.381H478.032C477.318 332.381 476.738 332.971 476.738 333.698C476.738 334.426 477.318 335.016 478.032 335.016H480.388C481.103 335.016 481.682 334.426 481.682 333.698C481.682 332.971 481.103 332.381 480.388 332.381Z" fill="white"/>
<path d="M465.422 332.6H450.776C450.062 332.6 449.483 333.19 449.483 333.918C449.483 334.646 450.062 335.236 450.776 335.236H465.422C466.136 335.236 466.716 334.646 466.716 333.918C466.716 333.19 466.136 332.6 465.422 332.6Z" fill="white"/>
<path d="M452.989 326.433H450.633C449.918 326.433 449.339 327.023 449.339 327.751C449.339 328.478 449.918 329.068 450.633 329.068H452.989C453.703 329.068 454.283 328.478 454.283 327.751C454.283 327.023 453.703 326.433 452.989 326.433Z" fill="white"/>
<path d="M479.939 326.433H477.583C476.868 326.433 476.289 327.023 476.289 327.751C476.289 328.478 476.868 329.068 477.583 329.068H479.939C480.654 329.068 481.233 328.478 481.233 327.751C481.233 327.023 480.654 326.433 479.939 326.433Z" fill="white"/>
<path d="M487.575 326.433H485.219C484.504 326.433 483.925 327.023 483.925 327.751C483.925 328.478 484.504 329.068 485.219 329.068H487.575C488.29 329.068 488.869 328.478 488.869 327.751C488.869 327.023 488.29 326.433 487.575 326.433Z" fill="white"/>
<path d="M472.609 326.653H457.963C457.249 326.653 456.67 327.243 456.67 327.97C456.67 328.698 457.249 329.288 457.963 329.288H472.609C473.323 329.288 473.902 328.698 473.902 327.97C473.902 327.243 473.323 326.653 472.609 326.653Z" fill="white"/>
<path d="M418.901 413.979L407.839 396.169L442.561 367.976L456.893 351.803C458.755 349.702 461.125 348.136 463.768 347.26C466.411 346.385 469.232 346.231 471.952 346.814C474.671 347.398 477.192 348.698 479.264 350.584C481.335 352.471 482.884 354.879 483.756 357.566C485.048 361.549 484.77 365.887 482.981 369.665C481.192 373.443 478.032 376.365 474.168 377.815L451.506 386.319L418.901 413.979Z" fill="#FFB6B6"/>
<path d="M159.344 284.842V371.406H218.883V284.842C218.884 284.22 218.689 283.613 218.326 283.112C217.964 282.611 217.453 282.241 216.869 282.057C216.594 281.964 216.306 281.919 216.016 281.922H162.22C161.843 281.921 161.469 281.996 161.12 282.143C160.772 282.289 160.455 282.504 160.188 282.775C159.921 283.046 159.709 283.369 159.564 283.723C159.419 284.078 159.345 284.458 159.344 284.842ZM182.58 314.586C182.595 312.879 183.272 311.248 184.462 310.047C185.652 308.846 187.26 308.172 188.935 308.172C190.611 308.172 192.219 308.846 193.409 310.047C194.599 311.248 195.276 312.879 195.291 314.586V324.63C195.283 326.341 194.609 327.979 193.418 329.186C192.227 330.393 190.616 331.07 188.935 331.07C187.255 331.07 185.644 330.393 184.453 329.186C183.262 327.979 182.588 326.341 182.58 324.63V314.586Z" fill="#2F2E41"/>
<path d="M159.162 368.637V376.985C159.163 377.417 159.332 377.831 159.631 378.138C159.931 378.444 160.337 378.618 160.761 378.622H217.466C217.891 378.62 218.298 378.446 218.597 378.139C218.897 377.833 219.065 377.417 219.065 376.985V368.637H159.162Z" fill="#3F3D56"/>
<path d="M65.6818 154.424V312.476C65.6833 314.49 66.4696 316.421 67.8678 317.845C69.2661 319.27 71.1622 320.07 73.1396 320.072H303.091C305.068 320.07 306.964 319.27 308.362 317.845C309.761 316.421 310.547 314.49 310.548 312.476V154.424C310.544 152.411 309.756 150.483 308.358 149.061C306.961 147.638 305.066 146.838 303.091 146.836H73.1396C71.1639 146.838 69.2697 147.638 67.8718 149.061C66.474 150.483 65.6865 152.411 65.6818 154.424Z" fill="#3F3D56"/>
<path d="M71.0763 156.39V310.526C71.0781 311.602 71.4986 312.634 72.2457 313.395C72.9928 314.156 74.0056 314.584 75.0621 314.586H301.176C302.233 314.584 303.246 314.156 303.993 313.395C304.74 312.634 305.16 311.602 305.162 310.526V156.39C305.162 155.313 304.742 154.279 303.995 153.517C303.248 152.754 302.234 152.324 301.176 152.322H75.0621C74.0043 152.324 72.9906 152.754 72.2433 153.517C71.4961 154.279 71.0764 155.313 71.0763 156.39Z" fill="white"/>
<path d="M113.039 378.056C113.269 378.35 113.562 378.587 113.895 378.75C114.228 378.912 114.593 378.995 114.962 378.993H249.485C249.853 378.993 250.216 378.909 250.548 378.747C250.88 378.586 251.173 378.351 251.404 378.06C251.636 377.769 251.801 377.429 251.888 377.065C251.975 376.701 251.98 376.322 251.905 375.955L249.817 365.852C249.73 365.44 249.544 365.056 249.274 364.737C249.005 364.417 248.662 364.17 248.275 364.02C247.995 363.909 247.697 363.851 247.397 363.852H117.042C116.741 363.851 116.443 363.909 116.163 364.02C115.777 364.17 115.433 364.417 115.164 364.737C114.895 365.056 114.708 365.44 114.622 365.852L112.534 375.955C112.459 376.321 112.466 376.7 112.554 377.064C112.641 377.427 112.807 377.766 113.039 378.056Z" fill="#2F2E41"/>
<path d="M293.838 173.555H82.264C82.0441 173.55 81.8349 173.457 81.6811 173.297C81.5273 173.137 81.4412 172.922 81.4412 172.698C81.4412 172.474 81.5273 172.259 81.6811 172.098C81.8349 171.938 82.0441 171.846 82.264 171.841H293.838C294.058 171.846 294.267 171.938 294.421 172.098C294.575 172.259 294.661 172.474 294.661 172.698C294.661 172.922 294.575 173.137 294.421 173.297C294.267 173.457 294.058 173.55 293.838 173.555Z" fill="#3F3D56"/>
<path d="M96.6662 167.465C99.3894 167.465 101.597 165.167 101.597 162.331C101.597 159.495 99.3894 157.197 96.6662 157.197C93.943 157.197 91.7354 159.495 91.7354 162.331C91.7354 165.167 93.943 167.465 96.6662 167.465Z" fill="#3F3D56"/>
<path d="M113.7 167.465C116.423 167.465 118.631 165.167 118.631 162.331C118.631 159.495 116.423 157.197 113.7 157.197C110.977 157.197 108.769 159.495 108.769 162.331C108.769 165.167 110.977 167.465 113.7 167.465Z" fill="#3F3D56"/>
<path d="M130.734 167.465C133.457 167.465 135.665 165.167 135.665 162.331C135.665 159.495 133.457 157.197 130.734 157.197C128.011 157.197 125.803 159.495 125.803 162.331C125.803 165.167 128.011 167.465 130.734 167.465Z" fill="#3F3D56"/>
<path d="M283.581 158.467H271.483C271.244 158.472 271.016 158.573 270.849 158.747C270.682 158.922 270.588 159.156 270.588 159.399C270.588 159.643 270.682 159.877 270.849 160.051C271.016 160.225 271.244 160.326 271.483 160.332H283.581C283.822 160.328 284.051 160.229 284.22 160.054C284.389 159.88 284.484 159.644 284.484 159.399C284.484 159.154 284.389 158.919 284.22 158.744C284.051 158.57 283.822 158.47 283.581 158.467Z" fill="#3F3D56"/>
<path d="M283.581 161.969H271.483C271.243 161.975 271.016 162.075 270.848 162.25C270.681 162.424 270.587 162.658 270.587 162.902C270.587 163.146 270.681 163.38 270.848 163.554C271.016 163.729 271.243 163.829 271.483 163.835H283.581C283.822 163.832 284.052 163.732 284.222 163.557C284.391 163.383 284.486 163.147 284.486 162.902C284.486 162.656 284.391 162.421 284.222 162.246C284.052 162.072 283.822 161.972 283.581 161.969Z" fill="#3F3D56"/>
<path d="M283.581 165.472H271.483C271.244 165.477 271.016 165.578 270.849 165.753C270.682 165.927 270.588 166.161 270.588 166.404C270.588 166.648 270.682 166.882 270.849 167.056C271.016 167.231 271.244 167.331 271.483 167.337H283.581C283.822 167.334 284.051 167.234 284.22 167.059C284.389 166.885 284.484 166.65 284.484 166.404C284.484 166.159 284.389 165.924 284.22 165.75C284.051 165.575 283.822 165.475 283.581 165.472Z" fill="#3F3D56"/>
<path d="M575.25 372.301C575.615 373.383 576.307 374.32 577.228 374.977C578.148 375.634 579.249 375.977 580.373 375.956L602.326 375.381C603.458 375.358 604.552 374.963 605.445 374.255C606.339 373.546 606.983 372.562 607.282 371.45L610.388 337.615C611.49 338.124 612.69 338.375 613.9 338.35C614.951 338.323 615.987 338.086 616.948 337.652C617.908 337.217 618.776 336.594 619.5 335.818C620.225 335.042 620.792 334.128 621.17 333.129C621.548 332.13 621.729 331.064 621.703 329.994C621.676 328.923 621.443 327.869 621.016 326.89C620.59 325.911 619.978 325.028 619.216 324.29C618.454 323.552 617.557 322.974 616.576 322.589C615.595 322.204 614.549 322.02 613.498 322.047C613.015 322.045 612.532 322.096 612.06 322.199C611.545 321.632 610.92 321.182 610.225 320.876C609.529 320.57 608.778 320.416 608.021 320.424L574.253 321.312C573.973 321.323 573.694 321.358 573.42 321.418C572.679 321.558 571.977 321.859 571.36 322.299C570.743 322.739 570.226 323.309 569.843 323.97C569.461 324.631 569.221 325.368 569.142 326.131C569.062 326.894 569.144 327.665 569.382 328.393L575.25 372.301ZM611.025 335.318L613.236 327.255C613.487 326.324 613.493 325.342 613.253 324.407C613.36 324.407 613.455 324.355 613.562 324.355C615.078 324.323 616.544 324.904 617.639 325.972C618.735 327.04 619.37 328.506 619.405 330.05C619.441 331.593 618.874 333.088 617.829 334.207C616.783 335.326 615.346 335.976 613.83 336.017C612.85 336.048 611.88 335.806 611.025 335.318Z" fill="#2F2E41"/>
<path d="M573.42 321.418C574.139 325.607 582.227 328.553 591.953 328.041C600.897 327.621 608.209 324.423 609.549 320.632C609.053 320.482 608.538 320.412 608.021 320.424L574.253 321.312C573.973 321.323 573.694 321.358 573.42 321.418Z" fill="#3F3D56"/>
<path d="M593.736 353.708C593.78 353.697 593.822 353.678 593.861 353.652L598.628 350.474C598.686 350.436 598.733 350.383 598.766 350.322C598.799 350.26 598.816 350.191 598.816 350.121C598.816 350.051 598.799 349.982 598.766 349.92C598.733 349.859 598.686 349.806 598.628 349.768L593.673 346.462C593.628 346.432 593.577 346.41 593.523 346.4C593.47 346.389 593.415 346.39 593.361 346.401C593.308 346.412 593.257 346.434 593.212 346.465C593.167 346.496 593.128 346.536 593.098 346.583C593.068 346.629 593.048 346.681 593.038 346.736C593.028 346.79 593.028 346.846 593.039 346.901C593.051 346.955 593.072 347.007 593.103 347.053C593.134 347.098 593.173 347.138 593.219 347.168L597.645 350.12L593.407 352.946C593.325 353.001 593.265 353.083 593.237 353.179C593.209 353.275 593.215 353.377 593.255 353.469C593.294 353.56 593.364 353.634 593.452 353.678C593.54 353.722 593.641 353.733 593.736 353.708Z" fill="#6C63FF"/>
<path d="M586.206 354.062C586.286 354.041 586.358 353.997 586.413 353.934C586.468 353.872 586.503 353.794 586.515 353.71C586.526 353.627 586.512 353.542 586.476 353.467C586.44 353.391 586.382 353.329 586.31 353.287L581.916 350.721L586.163 347.507C586.207 347.474 586.244 347.433 586.272 347.385C586.3 347.338 586.318 347.285 586.326 347.23C586.334 347.176 586.331 347.12 586.318 347.066C586.305 347.012 586.281 346.962 586.249 346.917C586.216 346.873 586.176 346.835 586.129 346.807C586.082 346.778 586.031 346.76 585.977 346.752C585.923 346.743 585.868 346.746 585.815 346.76C585.763 346.773 585.713 346.797 585.669 346.83L580.914 350.428C580.859 350.47 580.815 350.525 580.786 350.588C580.756 350.652 580.743 350.722 580.747 350.792C580.751 350.862 580.773 350.929 580.809 350.989C580.845 351.048 580.895 351.098 580.955 351.133L585.898 354.019C585.991 354.073 586.102 354.089 586.206 354.062Z" fill="#6C63FF"/>
<path d="M593.261 356.493C593.302 356.483 593.34 356.467 593.375 356.445C593.421 356.416 593.462 356.378 593.494 356.333C593.526 356.288 593.55 356.238 593.562 356.184C593.575 356.13 593.578 356.074 593.569 356.019C593.561 355.965 593.542 355.912 593.514 355.865L586.756 344.548C586.698 344.452 586.606 344.384 586.5 344.358C586.393 344.331 586.28 344.349 586.186 344.407C586.093 344.466 586.025 344.559 585.999 344.668C585.973 344.777 585.991 344.891 586.048 344.987L592.806 356.304C592.852 356.381 592.921 356.441 593.003 356.475C593.085 356.509 593.176 356.516 593.261 356.493Z" fill="#6C63FF"/>
<path d="M213.331 220.145H176.712C175.218 220.145 174.007 221.378 174.007 222.9V226.544C174.007 228.065 175.218 229.299 176.712 229.299H213.331C214.825 229.299 216.035 228.065 216.035 226.544V222.9C216.035 221.378 214.825 220.145 213.331 220.145Z" fill="#6C63FF"/>
<path d="M234.675 238.453H155.367C153.873 238.453 152.662 239.686 152.662 241.208V244.852C152.662 246.373 153.873 247.607 155.367 247.607H234.675C236.169 247.607 237.38 246.373 237.38 244.852V241.208C237.38 239.686 236.169 238.453 234.675 238.453Z" fill="#E6E6E6"/>
<path d="M234.675 256.761H155.367C153.873 256.761 152.662 257.994 152.662 259.516V263.16C152.662 264.681 153.873 265.915 155.367 265.915H234.675C236.169 265.915 237.38 264.681 237.38 263.16V259.516C237.38 257.994 236.169 256.761 234.675 256.761Z" fill="#E6E6E6"/>
<path d="M241.398 318.067L241.578 318.645L241.587 318.664L246.995 335.408L253.215 354.703L264.917 390.964L265.031 396.596V396.616L265.901 441.927L263.49 448.07L266.203 458.141C266.203 458.141 264.955 442.917 258.263 451.66C254.472 456.628 250.038 461.712 246.399 466.478C251.702 468.663 257.09 470.64 262.564 472.409C263.745 472.794 264.936 473.16 266.127 473.526C266.383 473.603 266.638 473.68 266.893 473.757C285.036 479.222 303.793 482.293 322.704 482.894C323.687 482.923 324.651 482.942 325.587 482.962C325.918 482.971 326.239 482.981 326.56 482.981C327.619 482.99 328.668 483 329.727 483C331.864 483 333.99 482.968 336.108 482.904C351.78 482.454 367.361 480.307 382.588 476.501C382.484 470.098 382.201 462.617 381.794 454.625C381.605 450.707 377.361 446.46 377.106 442.359C376.926 439.278 380.735 436.38 380.537 433.25C379.251 413.984 377.644 421.38 376.453 407.736C376.33 406.398 376.217 405.117 376.113 403.895C375.347 395.133 374.818 389.654 374.818 389.654L379.904 357.005L387.891 305.743L387.277 304.713L386.587 304.366L344.455 283.126L342.167 277.157C341.501 275.437 340.344 273.959 338.847 272.914C337.349 271.869 335.579 271.305 333.764 271.293L306.01 271.177C304.569 271.171 303.148 271.514 301.864 272.179C300.58 272.844 299.47 273.811 298.627 275L291.112 285.601L241.398 318.067Z" fill="#3F3D56"/>
<path d="M271.317 382.895L265.031 396.596L260.739 405.955L253.357 445.326L249.66 449.321L246.494 435.176L213.349 442.672C212.262 436.519 213.058 442.88 212.387 436.13C212.576 435.938 212.775 435.745 212.973 435.553C213.503 435.052 213.947 434.58 213.938 434.128C213.559 410.846 214.694 371.226 224.166 347.222C225.649 343.303 227.605 339.587 229.989 336.159C230.178 335.899 230.357 335.639 230.537 335.379C234.904 329.15 237.665 323.016 241.578 318.655V318.645C241.602 318.625 241.625 318.603 241.644 318.578C241.658 318.571 241.671 318.561 241.682 318.549L268.566 304.029L269.72 337.035L270.542 360.76L271.317 382.895Z" fill="#3F3D56"/>
<path d="M368.257 386.787L376.109 403.899L378.85 409.859L386.231 449.226L389.915 453.212L393.089 439.07L394.58 438.758L421.477 433.084L429.316 458.444C431.083 455.445 431.779 451.917 431.287 448.456C430.795 444.995 429.144 441.813 426.614 439.449C426.079 438.955 425.632 438.475 425.645 438.021C426.091 410.638 424.447 360.637 409.596 340.058C404.88 333.527 402.05 327.022 397.933 322.478C397.92 322.465 397.92 322.452 397.907 322.452L387.888 305.742L387.276 304.716L386.588 304.366L368.257 386.787Z" fill="#3F3D56"/>
<path d="M320.688 263.132C341.08 263.132 357.612 246.294 357.612 225.524C357.612 204.753 341.08 187.916 320.688 187.916C300.296 187.916 283.765 204.753 283.765 225.524C283.765 246.294 300.296 263.132 320.688 263.132Z" fill="#FFB6B6"/>
<path d="M370.594 199.255C370.308 198.943 369.963 198.694 369.58 198.521C369.197 198.349 368.784 198.257 368.365 198.25L368.921 196.681C369.102 196.186 369.151 195.651 369.062 195.131C368.974 194.611 368.751 194.124 368.417 193.721C368.084 193.317 367.65 193.011 367.162 192.834C366.674 192.657 366.148 192.616 365.639 192.714L363.617 193.11L363.808 191.735C363.881 191.222 363.822 190.699 363.636 190.217C363.451 189.735 363.145 189.31 362.75 188.985C362.354 188.66 361.882 188.445 361.381 188.362C360.879 188.278 360.365 188.33 359.888 188.51C359.455 188.684 358.989 188.757 358.524 188.723C358.06 188.69 357.608 188.551 357.203 188.316C356.797 188.089 356.444 187.774 356.169 187.394C355.894 187.013 355.704 186.576 355.612 186.113L354.908 182.653L354.833 182.467C351.403 176.643 344.807 172.406 336.736 170.853C329.551 169.461 322.185 170.17 315.083 170.836C312.266 171.106 309.084 171.41 306.432 173.065C304.178 174.483 302.272 177.319 302.662 180.18C295.659 177.994 288.152 182.357 284.431 187.86C280.023 194.41 279.302 202.614 279.186 209.029C278.871 224.204 281.945 236.62 288.301 245.938C288.765 246.613 288.881 248.023 289.801 248.495L289.61 248.183C290.638 248.706 291.682 249.55 291.292 250.453C290.174 253.053 297.607 258.801 302.844 260.7C312.398 264.169 325.101 263.873 334.034 262.624L334.349 260.472C337.573 260.025 339.843 259.172 340.481 257.839C341.608 256.859 342.569 255.982 343.406 255.171L343.415 255.163C343.431 255.146 343.464 255.121 343.481 255.104C347.516 251.162 348.453 248.917 348.875 245.499C349.282 242.148 348.561 238.747 347.823 235.683C363.352 238.131 341.708 218.836 356.176 215.106C356.342 215.053 356.511 215.011 356.681 214.979C357.104 214.878 357.527 214.776 357.933 214.658C359.89 214.117 361.764 213.302 363.501 212.236C367.545 209.729 368.879 206.404 370.967 202.656C371.269 202.123 371.395 201.505 371.328 200.893C371.261 200.282 371.004 199.708 370.594 199.255Z" fill="#2F2E41"/>
<path d="M451.28 389.464C451.272 390.941 451.255 393.009 451.189 395.567C451.181 395.921 451.173 396.284 451.164 396.655C451.057 401.357 450.949 405.298 450.775 409.679C450.767 409.982 450.758 410.278 450.742 410.582C450.51 416.692 450.145 423.808 449.515 435.075C448.347 455.889 446.308 437.937 444.262 445.237C444.162 445.6 444.054 446.031 443.955 446.537C443.645 448.375 443.122 450.168 442.397 451.88C441.312 452.538 440.193 453.171 439.091 453.804C435.95 455.585 432.76 457.299 429.545 458.928C427.738 459.839 425.924 460.734 424.101 461.595C423.811 461.73 423.529 461.865 423.247 461.991C413.912 466.39 404.29 470.129 394.451 473.183C392.529 473.774 390.615 474.348 388.676 474.88C386.654 475.454 384.632 475.994 382.585 476.5C367.359 480.308 351.778 482.455 336.106 482.906C333.993 482.974 331.863 482.999 329.725 482.999C328.665 482.999 327.621 482.991 326.56 482.982C326.237 482.982 325.914 482.974 325.59 482.965C324.654 482.94 323.685 482.923 322.707 482.898C303.796 482.297 285.039 479.225 266.897 473.757L266.126 473.529C264.933 473.158 263.748 472.795 262.563 472.407C257.094 470.643 251.705 468.668 246.396 466.482C242.344 464.819 238.339 463.035 234.381 461.13C234.345 461.12 234.311 461.103 234.281 461.08C233.453 460.692 232.616 460.286 231.787 459.873C231.679 459.814 231.563 459.755 231.447 459.696C228.356 458.159 225.299 456.55 222.274 454.868C219.73 448.917 216.15 447.778 213.93 442.545C213.283 440.99 212.816 439.365 212.537 437.7C212.537 437.683 212.529 437.666 212.529 437.641C212.761 440.781 211.543 432.071 212.521 437.607C212.513 437.506 212.504 437.396 212.496 437.27C212.471 436.966 212.438 436.595 212.388 436.13C209.546 407.864 209.728 375.538 208.494 348.9C208.411 347.179 208.325 345.53 208.237 343.954C208.212 343.431 208.179 342.916 208.146 342.41C208.204 342.258 208.27 342.098 208.344 341.946C208.36 341.902 208.38 341.86 208.402 341.819C208.427 341.767 208.455 341.716 208.485 341.667C208.502 341.642 208.527 341.608 208.543 341.583C208.555 341.554 208.569 341.526 208.585 341.498C208.659 341.38 208.742 341.254 208.833 341.135C208.875 341.085 208.908 341.042 208.949 341C208.978 340.957 209.011 340.918 209.049 340.882C209.074 340.842 209.105 340.805 209.14 340.772C209.173 340.739 209.206 340.696 209.248 340.654C209.265 340.628 209.288 340.605 209.314 340.587C209.38 340.51 209.452 340.439 209.529 340.376C209.825 340.099 210.141 339.845 210.474 339.616C210.59 339.54 210.714 339.464 210.83 339.38C211.665 338.871 212.545 338.442 213.457 338.097C213.772 337.979 214.087 337.869 214.427 337.751C214.551 337.717 214.667 337.675 214.791 337.633C214.974 337.574 215.156 337.515 215.347 337.472C216.291 337.185 217.31 336.941 218.413 336.713C218.545 336.687 218.686 336.662 218.827 336.628C219.026 336.586 219.233 336.552 219.44 336.519C219.722 336.468 220.012 336.417 220.302 336.367C222.763 335.97 225.556 335.675 228.638 335.48C228.928 335.464 229.218 335.447 229.508 335.43C229.848 335.413 230.188 335.396 230.536 335.379C230.826 335.362 231.124 335.354 231.422 335.345C231.712 335.328 232.011 335.32 232.317 335.312C233.154 335.286 234.016 335.261 234.894 335.244C237.397 335.193 240.032 335.21 242.8 335.269C244.084 335.303 245.393 335.337 246.736 335.396C246.827 335.396 246.91 335.404 246.993 335.404C248.161 335.447 249.338 335.497 250.548 335.565C251.393 335.607 252.246 335.649 253.1 335.7C253.904 335.751 254.716 335.801 255.536 335.86C256.174 335.894 256.812 335.945 257.459 335.987C258.005 336.029 258.552 336.071 259.099 336.105L259.845 336.156C260.251 336.189 260.657 336.215 261.072 336.257C261.983 336.333 262.895 336.409 263.823 336.485C264.742 336.569 265.679 336.654 266.615 336.738C267.552 336.822 268.496 336.915 269.441 337.008C269.54 337.017 269.632 337.025 269.723 337.033C270.584 337.126 271.446 337.211 272.316 337.304C272.515 337.32 272.722 337.337 272.921 337.363C273.751 337.447 274.597 337.547 275.434 337.637C275.691 337.666 275.946 337.693 276.204 337.722C276.86 337.795 277.506 337.858 278.167 337.937C279.037 338.038 279.923 338.131 280.785 338.249C281.456 338.325 282.128 338.401 282.799 338.485C283.851 338.612 284.92 338.747 285.989 338.89C286.395 338.941 286.801 338.992 287.207 339.051C290.257 339.439 293.339 339.869 296.471 340.317C301.22 341 306.042 341.743 310.898 342.545C315.763 343.347 320.654 344.194 325.574 345.085C326.817 345.313 328.06 345.541 329.311 345.778C329.874 345.887 330.438 345.997 331.001 346.107C331.963 346.284 332.924 346.47 333.885 346.655C334.846 346.841 335.808 347.027 336.769 347.221C337.912 347.449 339.064 347.677 340.208 347.904C347.74 349.424 355.231 351.044 362.54 352.741C363.741 353.019 364.943 353.306 366.136 353.585C368.523 354.15 370.887 354.724 373.23 355.307C373.876 355.458 374.514 355.619 375.152 355.779C376.743 356.184 378.334 356.589 379.9 357.003L380.174 357.079C381.325 357.366 382.452 357.661 383.579 357.965C386.239 358.674 388.855 359.392 391.427 360.117C393.134 360.599 394.821 361.085 396.49 361.578C398.984 362.312 401.429 363.055 403.807 363.806C404.395 363.992 404.983 364.177 405.564 364.354C407.304 364.903 409.019 365.46 410.685 366.017C412.01 366.456 413.303 366.903 414.579 367.351C415.855 367.798 417.107 368.245 418.333 368.693C419.12 368.98 419.899 369.284 420.678 369.571C421.797 369.993 422.899 370.415 423.976 370.837C424.308 370.963 424.631 371.098 424.954 371.225C425.161 371.318 425.36 371.394 425.559 371.478C425.948 371.638 426.346 371.79 426.727 371.951C427.117 372.103 427.498 372.263 427.879 372.432C428.252 372.584 428.633 372.744 428.998 372.904C429.371 373.056 429.735 373.217 430.1 373.386C430.407 373.512 430.705 373.647 430.995 373.782C431.583 374.044 432.172 374.306 432.743 374.576C433.025 374.711 433.307 374.837 433.589 374.972L434.235 375.276C434.326 375.327 434.417 375.369 434.508 375.411C434.715 375.513 434.931 375.622 435.138 375.724C435.619 375.951 436.091 376.196 436.555 376.424C437.177 376.745 437.782 377.066 438.362 377.378C438.95 377.698 439.522 378.019 440.069 378.332C440.16 378.382 440.243 378.433 440.334 378.483C440.458 378.551 440.582 378.627 440.707 378.694C441.129 378.939 441.535 379.192 441.941 379.437C442.737 379.935 443.491 380.425 444.195 380.914C444.353 381.024 444.502 381.134 444.659 381.235C445.181 381.615 445.679 381.986 446.143 382.366C446.143 382.374 446.143 382.374 446.151 382.374C446.308 382.493 446.458 382.619 446.607 382.737C446.731 382.855 446.864 382.957 446.988 383.075C447.419 383.455 447.816 383.818 448.181 384.189C448.303 384.304 448.42 384.425 448.529 384.552C448.577 384.593 448.622 384.638 448.662 384.687C448.827 384.856 448.977 385.025 449.117 385.193C449.139 385.217 449.159 385.242 449.175 385.269C449.374 385.506 449.557 385.742 449.731 385.978C449.814 386.097 449.905 386.215 449.979 386.333C450.079 386.476 450.178 386.628 450.261 386.772C450.336 386.89 450.402 387.017 450.468 387.135C450.644 387.439 450.794 387.758 450.916 388.088C451.009 388.312 451.084 388.544 451.139 388.78C451.202 389.005 451.249 389.233 451.28 389.464Z" fill="#2F2E41"/>
<path opacity="0.2" d="M451.28 389.464C451.272 390.941 451.255 393.009 451.189 395.567C451.181 395.921 451.164 396.284 451.156 396.655C451.073 400.243 450.949 404.674 450.775 409.679C450.767 409.983 450.758 410.278 450.742 410.582C450.51 416.693 450.145 423.808 449.515 435.075C448.347 455.889 446.308 437.937 444.262 445.238C438.577 441.676 432.346 437.945 425.683 434.113C424.482 433.421 423.269 432.726 422.045 432.029C408.721 424.458 393.838 416.524 378.301 408.666C377.688 408.354 377.066 408.041 376.453 407.737C340.862 389.819 302.015 372.39 270.543 360.759C264.469 358.514 258.668 356.488 253.216 354.707C241.731 350.968 231.804 348.352 224.163 347.221C216.208 346.039 210.714 346.461 208.494 348.9C208.411 347.179 208.325 345.53 208.237 343.954C208.203 343.431 208.17 342.916 208.137 342.41C208.188 342.271 208.255 342.138 208.319 342.005C208.328 341.985 208.335 341.965 208.344 341.946C208.36 341.902 208.38 341.86 208.402 341.819C208.427 341.767 208.455 341.716 208.485 341.667C208.512 341.607 208.546 341.551 208.585 341.498C208.659 341.38 208.742 341.254 208.833 341.135C208.9 341.047 208.972 340.962 209.049 340.882C209.074 340.842 209.105 340.805 209.14 340.772C209.173 340.739 209.206 340.696 209.248 340.654C209.265 340.628 209.288 340.605 209.314 340.587C209.379 340.51 209.452 340.44 209.529 340.376C209.825 340.099 210.141 339.845 210.474 339.616C210.59 339.54 210.714 339.464 210.83 339.38C211.665 338.871 212.545 338.442 213.457 338.097C213.772 337.979 214.087 337.869 214.427 337.751C214.551 337.717 214.667 337.675 214.791 337.633C214.974 337.574 215.156 337.515 215.346 337.472C216.291 337.185 217.31 336.941 218.412 336.713C218.744 336.645 219.092 336.578 219.44 336.519C219.722 336.468 220.012 336.417 220.302 336.367C222.763 335.97 225.555 335.675 228.638 335.48C228.928 335.464 229.218 335.447 229.508 335.43C229.848 335.413 230.188 335.396 230.536 335.379C230.826 335.362 231.124 335.354 231.422 335.345C231.712 335.329 232.011 335.32 232.317 335.312C233.154 335.286 234.016 335.261 234.894 335.244C237.397 335.202 240.032 335.219 242.8 335.278C244.084 335.303 245.393 335.345 246.736 335.405C246.819 335.405 246.91 335.413 246.993 335.413C248.161 335.447 249.346 335.506 250.548 335.565C251.393 335.607 252.246 335.649 253.1 335.7C253.904 335.751 254.716 335.801 255.536 335.86C256.174 335.894 256.812 335.945 257.459 335.987C258.005 336.029 258.552 336.071 259.099 336.105C259.754 336.156 260.409 336.206 261.071 336.257C261.983 336.333 262.895 336.409 263.823 336.485C264.742 336.569 265.679 336.654 266.615 336.738C267.552 336.822 268.496 336.915 269.441 337.008C269.54 337.017 269.631 337.025 269.723 337.033C270.584 337.126 271.446 337.211 272.316 337.304C277.139 337.802 282.103 338.384 287.207 339.051C290.257 339.447 293.345 339.872 296.471 340.325C301.22 341.009 306.042 341.752 310.898 342.545C315.763 343.347 320.654 344.194 325.574 345.085C326.817 345.313 328.06 345.541 329.311 345.778C330.836 346.065 332.36 346.357 333.885 346.655C334.846 346.841 335.808 347.027 336.769 347.221C337.912 347.449 339.064 347.677 340.208 347.905C347.74 349.424 355.231 351.044 362.54 352.741C363.741 353.019 364.943 353.306 366.136 353.585C368.523 354.15 370.887 354.724 373.23 355.307C373.876 355.467 374.514 355.627 375.152 355.788C376.751 356.193 378.334 356.598 379.9 357.003V357.012C379.991 357.028 380.082 357.054 380.174 357.079C381.317 357.374 382.452 357.67 383.579 357.974C386.239 358.683 388.855 359.397 391.427 360.118C393.134 360.607 394.824 361.088 396.49 361.578C398.984 362.32 401.429 363.063 403.807 363.806C404.395 363.992 404.983 364.177 405.564 364.355C407.304 364.912 409.011 365.466 410.685 366.017C412.01 366.456 413.303 366.904 414.579 367.351C415.855 367.798 417.107 368.246 418.333 368.693C419.129 368.98 419.908 369.275 420.678 369.562C421.805 369.984 422.899 370.406 423.976 370.837C424.308 370.963 424.631 371.098 424.954 371.225C425.559 371.461 426.147 371.706 426.727 371.951C427.117 372.103 427.498 372.263 427.879 372.432C428.252 372.584 428.633 372.744 428.998 372.905C429.371 373.056 429.735 373.217 430.1 373.386C430.407 373.512 430.705 373.647 430.995 373.782C431.583 374.044 432.172 374.306 432.743 374.576C433.025 374.711 433.307 374.837 433.589 374.972L434.235 375.276C434.326 375.327 434.417 375.369 434.508 375.411C435.213 375.749 435.892 376.087 436.555 376.424C437.177 376.745 437.782 377.066 438.362 377.378C439.049 377.749 439.704 378.112 440.334 378.484C440.458 378.551 440.582 378.627 440.707 378.695C441.129 378.939 441.535 379.193 441.941 379.437C442.737 379.935 443.491 380.425 444.195 380.914C444.891 381.404 445.538 381.885 446.143 382.366C446.143 382.374 446.143 382.374 446.151 382.374C446.441 382.611 446.723 382.847 446.988 383.075C447.419 383.455 447.816 383.818 448.181 384.189C448.303 384.304 448.42 384.425 448.529 384.552C448.577 384.593 448.622 384.638 448.662 384.687C448.836 384.881 449.01 385.075 449.176 385.269C449.374 385.506 449.557 385.742 449.731 385.978C449.814 386.097 449.905 386.215 449.979 386.333C450.079 386.476 450.178 386.628 450.261 386.772C450.336 386.89 450.402 387.017 450.468 387.135C450.644 387.439 450.794 387.758 450.916 388.089C451.006 388.313 451.081 388.545 451.139 388.781C451.202 389.005 451.249 389.233 451.28 389.464Z" fill="black"/>
</g>
<defs>
<clipPath id="clip0_30_257">
<rect width="652" height="483" fill="white" transform="translate(0.5)"/>
</clipPath>
</defs>
</svg>
