<svg width="579" height="379" viewBox="0 0 579 379" fill="none" xmlns="http://www.w3.org/2000/svg">
<g clip-path="url(#clip0_30_2)">
<path d="M286.523 64.4304C296.224 64.4304 304.088 56.5683 304.088 46.87C304.088 37.1716 296.224 29.3096 286.523 29.3096C276.822 29.3096 268.959 37.1716 268.959 46.87C268.959 56.5683 276.822 64.4304 286.523 64.4304Z" fill="#FD6584"/>
<path d="M325.834 38.5548C325.339 36.931 324.379 35.4874 323.074 34.4018C321.768 33.3163 320.173 32.6361 318.486 32.445C318.447 32.4417 318.407 32.4417 318.368 32.445C318.32 32.4303 318.272 32.4193 318.223 32.4122C312.342 31.6492 305.803 33.5039 301.402 37.542C299.768 39.0174 298.462 40.8187 297.567 42.8297C296.751 41.7157 295.676 40.8172 294.435 40.2121C293.193 39.6071 291.823 39.3136 290.443 39.3572C288.662 39.4749 286.962 40.1386 285.573 41.2579C284.184 42.3771 283.173 43.8975 282.68 45.6117C282.626 45.8211 282.641 46.0425 282.723 46.2427C282.804 46.443 282.949 46.6115 283.134 46.7232C283.663 47.1756 284.292 47.4957 284.969 47.6571C286.423 47.9662 287.89 48.249 289.357 48.5055C292.225 49.0053 295.109 49.4109 298.008 49.7222C299.922 49.926 301.841 50.0883 303.764 50.2088C307.737 50.4588 311.73 50.518 315.71 50.393C317.684 50.3272 319.578 50.2615 321.381 49.3933C322.694 48.7475 323.816 47.7705 324.637 46.5587C325.409 45.3931 325.917 44.0724 326.124 42.6896C326.331 41.3067 326.232 39.8954 325.834 38.5548Z" fill="#E6E6E6"/>
<path d="M289.699 64.1384C289.666 63.4026 289.542 62.6736 289.331 61.968C288.833 60.3443 287.872 58.9012 286.566 57.8159C285.259 56.7305 283.664 56.0501 281.976 55.8582C281.939 55.8549 281.902 55.8549 281.865 55.8582C281.815 55.8441 281.764 55.8332 281.713 55.8254C278.458 55.4267 275.155 55.7662 272.05 56.8184C267.274 58.4166 263.083 61.6392 261.064 66.2429C260.247 65.1282 259.171 64.2293 257.928 63.6242C256.686 63.0191 255.314 62.726 253.933 62.7704C252.153 62.8881 250.452 63.5518 249.063 64.6711C247.674 65.7903 246.664 67.3107 246.17 69.0249C246.119 69.2344 246.136 69.4546 246.217 69.6542C246.299 69.8538 246.441 70.0226 246.624 70.1364C247.154 70.5875 247.783 70.9075 248.46 71.0703C249.92 71.3794 251.38 71.6622 252.854 71.9187C255.722 72.4185 258.603 72.8241 261.498 73.1354C267.378 73.7665 273.295 73.9906 279.207 73.8062C281.174 73.7404 283.075 73.6746 284.877 72.8065C286.189 72.1605 287.309 71.1834 288.127 69.9719C289.28 68.2539 289.833 66.203 289.699 64.1384Z" fill="#E6E6E6"/>
<path d="M518.461 277.218C518.713 289.191 517.061 301.128 513.565 312.583C513.442 312.999 513.296 313.415 513.149 313.831H441.08C442.11 308.759 443.745 303.829 445.951 299.147C451.949 286.42 461.741 275.529 471.41 264.712C484.727 249.807 497.726 235.024 499.783 215.641C505.061 223.686 509.274 232.382 512.317 241.51C508.592 242.889 505.174 244.985 502.255 247.678C501.447 248.436 500.591 249.538 501.007 250.59C501.398 251.471 502.475 251.765 503.43 251.96C505.731 252.401 508.032 252.841 510.334 253.258C512.145 253.625 513.981 253.967 515.817 254.31C517.431 261.844 518.316 269.515 518.461 277.218Z" fill="#F2F2F2"/>
<path d="M579 269.288C567.445 276.312 560.101 287.179 554.104 299.342C548.885 300.531 544.066 303.062 540.126 306.684C539.293 307.443 538.437 308.544 538.877 309.597C539.245 310.478 540.346 310.772 541.301 310.967C543.577 311.408 545.903 311.849 548.18 312.265C547.959 312.779 547.739 313.317 547.519 313.831H471.141C474.608 309.156 478.448 304.769 482.622 300.713C483.528 299.807 484.458 298.951 485.413 298.07C495.149 289.273 506.329 282.219 518.461 277.218C537.574 269.23 558.474 266.492 579 269.288Z" fill="#F2F2F2"/>
<path d="M483.871 313.831H415.865C415.494 308.386 415.527 302.922 415.963 297.482C418.681 263.879 436.967 231.867 464.556 212.484C461.031 225.039 462.842 237.521 466.514 250.052C466 250.223 465.486 250.37 465.021 250.565C461.297 251.945 457.879 254.04 454.96 256.733C454.152 257.492 453.295 258.593 453.711 259.645C454.078 260.526 455.18 260.82 456.135 261.016C458.436 261.456 460.737 261.897 463.014 262.313C464.85 262.68 466.686 263.023 468.522 263.39C469.378 263.537 470.235 263.708 471.092 263.879C471.214 264.173 471.288 264.442 471.41 264.712C475.719 276.581 480.419 288.549 482.622 300.713C483.168 303.765 483.544 306.846 483.748 309.94C483.822 311.237 483.871 312.534 483.871 313.831Z" fill="#F2F2F2"/>
<path d="M113.235 277.218C113.487 289.191 111.835 301.128 108.339 312.583C108.216 312.999 108.069 313.415 107.922 313.831H35.8534C36.8836 308.759 38.5192 303.829 40.725 299.147C46.7225 286.42 56.5145 275.529 66.1841 264.712C79.5012 249.807 92.5001 235.024 94.5565 215.641C99.8351 223.686 104.048 232.382 107.09 241.51C103.366 242.889 99.9478 244.985 97.029 247.678C96.2211 248.436 95.3642 249.538 95.7805 250.59C96.1721 251.471 97.2493 251.765 98.204 251.96C100.505 252.401 102.806 252.841 105.107 253.258C106.919 253.625 108.755 253.967 110.591 254.31C112.205 261.844 113.09 269.515 113.235 277.218Z" fill="#F2F2F2"/>
<path d="M173.774 269.288C162.219 276.312 154.875 287.179 148.878 299.342C143.658 300.531 138.84 303.062 134.899 306.684C134.067 307.443 133.21 308.544 133.651 309.597C134.018 310.478 135.12 310.772 136.074 310.967C138.351 311.408 140.677 311.849 142.953 312.265C142.733 312.779 142.513 313.317 142.293 313.831H65.9149C69.382 309.156 73.2216 304.769 77.396 300.713C78.3018 299.807 79.232 298.951 80.1868 298.07C89.923 289.273 101.103 282.219 113.235 277.218C132.347 269.23 153.248 266.492 173.774 269.288Z" fill="#F2F2F2"/>
<path d="M78.6445 313.831H10.639C10.2676 308.386 10.3004 302.922 10.737 297.482C13.4543 263.879 31.7408 231.867 59.3298 212.484C55.8046 225.039 57.6161 237.521 61.2881 250.052C60.7741 250.223 60.26 250.37 59.7949 250.565C56.0705 251.945 52.6524 254.04 49.7336 256.733C48.9258 257.492 48.069 258.593 48.4851 259.645C48.8522 260.526 49.9539 260.82 50.9086 261.016C53.2097 261.456 55.5109 261.897 57.7875 262.313C59.6235 262.68 61.4595 263.023 63.2955 263.39C64.1522 263.537 65.0091 263.708 65.8658 263.879C65.9882 264.173 66.0617 264.442 66.1841 264.712C70.4926 276.581 75.1927 288.549 77.396 300.713C77.9413 303.765 78.3173 306.846 78.5221 309.94C78.5955 311.237 78.6445 312.534 78.6445 313.831Z" fill="#F2F2F2"/>
<path d="M331.818 285.286L392.583 290.679L393.234 290.739V31.5224C393.017 31.3711 392.8 31.2199 392.583 31.0686C379.919 22.2128 366.22 14.9376 351.79 9.40479L348.685 52.2194L348.402 56.1392L345.33 98.5987L344.383 111.66L331.93 283.774L331.818 285.286Z" fill="#E6E6E6"/>
<path d="M181.549 26.6951C181.115 26.9713 180.681 27.2475 180.247 27.5369V290.739L181.549 290.62L241.656 285.286L241.544 283.774L229.091 111.66L228.144 98.5987L225.072 56.1392L224.789 52.2194L221.532 7.31995C207.49 12.1863 194.07 18.6895 181.549 26.6951Z" fill="#E6E6E6"/>
<path d="M180.247 27.5369C179.372 28.1025 178.497 28.6813 177.635 29.2666V294.329C177.635 300.952 181.562 306.503 186.812 307.917C187.67 308.149 188.555 308.266 189.443 308.266H384.689C385.575 308.267 386.458 308.15 387.313 307.917C389.265 307.376 391.033 306.317 392.431 304.852C395.098 302.003 396.555 298.231 396.497 294.329V33.8769C395.418 33.0811 394.333 32.2919 393.234 31.5224C393.017 31.3711 392.8 31.2199 392.583 31.0686V294.329C392.584 295.183 392.483 296.033 392.28 296.862C391.353 300.775 388.294 303.642 384.689 303.642H189.443C185.088 303.642 181.549 299.466 181.549 294.329V26.6951C181.115 26.9713 180.681 27.2475 180.247 27.5369Z" fill="#E6E6E6"/>
<path d="M394.54 52.222H179.591V56.1411H394.54V52.222Z" fill="#E6E6E6"/>
<path d="M328.707 2.22956C327.404 1.90729 326.102 1.60476 324.786 1.32196V107.74H328.707V2.22956Z" fill="#E6E6E6"/>
<path d="M249.346 0C248.037 0.24334 246.728 0.493259 245.425 0.762906V107.74H249.346V0Z" fill="#E6E6E6"/>
<path d="M137.448 301.406C137.447 303.655 137.878 305.883 138.718 307.97C139.04 308.779 139.425 309.561 139.869 310.311C140.442 311.288 141.107 312.209 141.856 313.06C143.508 314.943 145.544 316.451 147.826 317.484C150.109 318.518 152.586 319.052 155.091 319.051H412.508C417.188 319.051 421.675 317.193 424.984 313.885C428.293 310.577 430.152 306.091 430.152 301.413C430.152 296.734 428.293 292.248 424.984 288.94C421.675 285.632 417.188 283.774 412.508 283.774H155.091C150.414 283.778 145.931 285.637 142.623 288.943C139.315 292.248 137.454 296.73 137.448 301.406Z" fill="#E6E6E6"/>
<path d="M179.591 111.662L393.233 111.662V98.598L179.591 98.598V111.662Z" fill="#E6E6E6"/>
<path d="M295.559 101.864H277.265C277.265 99.9583 278.022 98.1308 279.37 96.7833C280.718 95.4359 282.546 94.6789 284.452 94.6789H288.372C289.316 94.6789 290.25 94.8647 291.122 95.2258C291.994 95.5869 292.786 96.1162 293.454 96.7833C294.121 97.4505 294.65 98.2426 295.011 99.1143C295.373 99.986 295.559 100.92 295.559 101.864Z" fill="#E6E6E6"/>
<path d="M3.8147e-06 311.482C5.71478 318.251 11.896 324.613 18.4983 330.521H549.095C555.697 324.613 561.878 318.251 567.593 311.482H3.8147e-06Z" fill="#3F3D56"/>
<path d="M260.957 247.812V315.263H308.222V247.812C308.223 247.327 308.068 246.854 307.78 246.464C307.492 246.073 307.087 245.785 306.623 245.642C306.405 245.57 306.176 245.534 305.946 245.536H263.239C262.94 245.536 262.643 245.594 262.366 245.708C262.09 245.822 261.838 245.99 261.626 246.201C261.414 246.413 261.246 246.664 261.131 246.94C261.016 247.216 260.957 247.513 260.957 247.812ZM279.402 270.989C279.415 269.659 279.952 268.388 280.897 267.452C281.842 266.516 283.118 265.991 284.448 265.991C285.778 265.991 287.054 266.516 287.999 267.452C288.944 268.388 289.481 269.659 289.493 270.989V278.815C289.487 280.148 288.952 281.425 288.006 282.365C287.061 283.306 285.782 283.834 284.448 283.834C283.114 283.834 281.835 283.306 280.889 282.365C279.944 281.425 279.409 280.148 279.402 278.815V270.989Z" fill="#2F2E41"/>
<path d="M260.812 313.106V319.61C260.813 319.947 260.947 320.27 261.184 320.509C261.422 320.748 261.744 320.884 262.081 320.886H307.097C307.434 320.885 307.757 320.75 307.995 320.51C308.233 320.271 308.367 319.948 308.367 319.61V313.106H260.812Z" fill="#3F3D56"/>
<path d="M186.601 146.188V269.344C186.603 270.914 187.227 272.419 188.337 273.528C189.447 274.638 190.952 275.262 192.522 275.263H375.071C376.641 275.262 378.146 274.638 379.256 273.528C380.366 272.419 380.99 270.914 380.992 269.344V146.188C380.988 144.62 380.363 143.117 379.253 142.009C378.143 140.901 376.64 140.278 375.071 140.276H192.522C190.953 140.278 189.45 140.901 188.34 142.009C187.23 143.117 186.605 144.62 186.601 146.188Z" fill="#3F3D56"/>
<path d="M190.884 147.72V267.825C190.885 268.664 191.219 269.467 191.812 270.06C192.405 270.653 193.209 270.987 194.048 270.988H373.551C374.39 270.987 375.194 270.653 375.787 270.06C376.38 269.467 376.714 268.664 376.716 267.825V147.72C376.716 146.881 376.382 146.076 375.789 145.481C375.196 144.887 374.391 144.552 373.551 144.55H194.048C193.208 144.552 192.404 144.887 191.81 145.481C191.217 146.076 190.884 146.881 190.884 147.72Z" fill="#6C63FF"/>
<path d="M227.486 322.419C227.669 322.648 227.901 322.832 228.165 322.959C228.429 323.085 228.719 323.15 229.012 323.149H335.805C336.097 323.148 336.385 323.083 336.649 322.957C336.913 322.831 337.145 322.649 337.329 322.422C337.513 322.195 337.644 321.93 337.713 321.646C337.781 321.362 337.786 321.067 337.726 320.781L336.068 312.909C335.999 312.588 335.851 312.289 335.638 312.04C335.424 311.79 335.151 311.599 334.845 311.482C334.622 311.394 334.386 311.35 334.147 311.35H230.663C230.425 311.35 230.188 311.394 229.966 311.482C229.659 311.599 229.386 311.79 229.173 312.04C228.959 312.289 228.811 312.588 228.742 312.909L227.085 320.781C227.026 321.067 227.031 321.362 227.1 321.645C227.17 321.928 227.302 322.193 227.486 322.419Z" fill="#2F2E41"/>
<path d="M330.421 314.741H333.068C333.245 314.741 333.389 314.597 333.389 314.42V313.089C333.389 312.912 333.245 312.768 333.068 312.768H330.421C330.243 312.768 330.1 312.912 330.1 313.089V314.42C330.1 314.597 330.243 314.741 330.421 314.741Z" fill="#3F3D56"/>
<path d="M323.842 314.741H326.489C326.667 314.741 326.81 314.597 326.81 314.42V313.089C326.81 312.912 326.667 312.768 326.489 312.768H323.842C323.665 312.768 323.521 312.912 323.521 313.089V314.42C323.521 314.597 323.665 314.741 323.842 314.741Z" fill="#3F3D56"/>
<path d="M317.264 314.741H319.911C320.088 314.741 320.232 314.597 320.232 314.42V313.089C320.232 312.912 320.088 312.768 319.911 312.768H317.264C317.087 312.768 316.943 312.912 316.943 313.089V314.42C316.943 314.597 317.087 314.741 317.264 314.741Z" fill="#3F3D56"/>
<path d="M310.686 314.741H313.332C313.51 314.741 313.654 314.597 313.654 314.42V313.089C313.654 312.912 313.51 312.768 313.332 312.768H310.686C310.508 312.768 310.364 312.912 310.364 313.089V314.42C310.364 314.597 310.508 314.741 310.686 314.741Z" fill="#3F3D56"/>
<path d="M304.107 314.741H306.754C306.932 314.741 307.075 314.597 307.075 314.42V313.089C307.075 312.912 306.932 312.768 306.754 312.768H304.107C303.93 312.768 303.786 312.912 303.786 313.089V314.42C303.786 314.597 303.93 314.741 304.107 314.741Z" fill="#3F3D56"/>
<path d="M297.529 314.741H300.176C300.353 314.741 300.497 314.597 300.497 314.42V313.089C300.497 312.912 300.353 312.768 300.176 312.768H297.529C297.352 312.768 297.208 312.912 297.208 313.089V314.42C297.208 314.597 297.352 314.741 297.529 314.741Z" fill="#3F3D56"/>
<path d="M290.951 314.741H293.597C293.775 314.741 293.919 314.597 293.919 314.42V313.089C293.919 312.912 293.775 312.768 293.597 312.768H290.951C290.773 312.768 290.629 312.912 290.629 313.089V314.42C290.629 314.597 290.773 314.741 290.951 314.741Z" fill="#3F3D56"/>
<path d="M284.372 314.741H287.019C287.196 314.741 287.34 314.597 287.34 314.42V313.089C287.34 312.912 287.196 312.768 287.019 312.768H284.372C284.195 312.768 284.051 312.912 284.051 313.089V314.42C284.051 314.597 284.195 314.741 284.372 314.741Z" fill="#3F3D56"/>
<path d="M277.794 314.741H280.441C280.618 314.741 280.762 314.597 280.762 314.42V313.089C280.762 312.912 280.618 312.768 280.441 312.768H277.794C277.617 312.768 277.473 312.912 277.473 313.089V314.42C277.473 314.597 277.617 314.741 277.794 314.741Z" fill="#3F3D56"/>
<path d="M271.216 314.741H273.862C274.04 314.741 274.184 314.597 274.184 314.42V313.089C274.184 312.912 274.04 312.768 273.862 312.768H271.216C271.038 312.768 270.894 312.912 270.894 313.089V314.42C270.894 314.597 271.038 314.741 271.216 314.741Z" fill="#3F3D56"/>
<path d="M264.637 314.741H267.284C267.461 314.741 267.605 314.597 267.605 314.42V313.089C267.605 312.912 267.461 312.768 267.284 312.768H264.637C264.46 312.768 264.316 312.912 264.316 313.089V314.42C264.316 314.597 264.46 314.741 264.637 314.741Z" fill="#3F3D56"/>
<path d="M258.059 314.741H260.706C260.883 314.741 261.027 314.597 261.027 314.42V313.089C261.027 312.912 260.883 312.768 260.706 312.768H258.059C257.881 312.768 257.738 312.912 257.738 313.089V314.42C257.738 314.597 257.881 314.741 258.059 314.741Z" fill="#3F3D56"/>
<path d="M251.481 314.741H254.127C254.305 314.741 254.449 314.597 254.449 314.42V313.089C254.449 312.912 254.305 312.768 254.127 312.768H251.481C251.303 312.768 251.159 312.912 251.159 313.089V314.42C251.159 314.597 251.303 314.741 251.481 314.741Z" fill="#3F3D56"/>
<path d="M244.902 314.741H247.549C247.726 314.741 247.87 314.597 247.87 314.42V313.089C247.87 312.912 247.726 312.768 247.549 312.768H244.902C244.725 312.768 244.581 312.912 244.581 313.089V314.42C244.581 314.597 244.725 314.741 244.902 314.741Z" fill="#3F3D56"/>
<path d="M238.324 314.741H240.971C241.148 314.741 241.292 314.597 241.292 314.42V313.089C241.292 312.912 241.148 312.768 240.971 312.768H238.324C238.146 312.768 238.003 312.912 238.003 313.089V314.42C238.003 314.597 238.146 314.741 238.324 314.741Z" fill="#3F3D56"/>
<path d="M231.745 314.741H234.392C234.57 314.741 234.714 314.597 234.714 314.42V313.089C234.714 312.912 234.57 312.768 234.392 312.768H231.745C231.568 312.768 231.424 312.912 231.424 313.089V314.42C231.424 314.597 231.568 314.741 231.745 314.741Z" fill="#3F3D56"/>
<path d="M330.498 318.029H333.145C333.323 318.029 333.466 317.886 333.466 317.708V316.377C333.466 316.2 333.323 316.056 333.145 316.056H330.498C330.321 316.056 330.177 316.2 330.177 316.377V317.708C330.177 317.886 330.321 318.029 330.498 318.029Z" fill="#3F3D56"/>
<path d="M323.92 318.029H326.567C326.744 318.029 326.888 317.886 326.888 317.708V316.377C326.888 316.2 326.744 316.056 326.567 316.056H323.92C323.743 316.056 323.599 316.2 323.599 316.377V317.708C323.599 317.886 323.743 318.029 323.92 318.029Z" fill="#3F3D56"/>
<path d="M317.342 318.029H319.989C320.166 318.029 320.31 317.886 320.31 317.708V316.377C320.31 316.2 320.166 316.056 319.989 316.056H317.342C317.164 316.056 317.021 316.2 317.021 316.377V317.708C317.021 317.886 317.164 318.029 317.342 318.029Z" fill="#3F3D56"/>
<path d="M310.763 318.029H313.41C313.588 318.029 313.731 317.886 313.731 317.708V316.377C313.731 316.2 313.588 316.056 313.41 316.056H310.763C310.586 316.056 310.442 316.2 310.442 316.377V317.708C310.442 317.886 310.586 318.029 310.763 318.029Z" fill="#3F3D56"/>
<path d="M304.185 318.029H306.832C307.009 318.029 307.153 317.886 307.153 317.708V316.377C307.153 316.2 307.009 316.056 306.832 316.056H304.185C304.008 316.056 303.864 316.2 303.864 316.377V317.708C303.864 317.886 304.008 318.029 304.185 318.029Z" fill="#3F3D56"/>
<path d="M297.607 318.029H300.254C300.431 318.029 300.575 317.886 300.575 317.708V316.377C300.575 316.2 300.431 316.056 300.254 316.056H297.607C297.429 316.056 297.286 316.2 297.286 316.377V317.708C297.286 317.886 297.429 318.029 297.607 318.029Z" fill="#3F3D56"/>
<path d="M291.028 318.029H293.675C293.853 318.029 293.996 317.886 293.996 317.708V316.377C293.996 316.2 293.853 316.056 293.675 316.056H291.028C290.851 316.056 290.707 316.2 290.707 316.377V317.708C290.707 317.886 290.851 318.029 291.028 318.029Z" fill="#3F3D56"/>
<path d="M284.45 318.029H287.097C287.274 318.029 287.418 317.886 287.418 317.708V316.377C287.418 316.2 287.274 316.056 287.097 316.056H284.45C284.273 316.056 284.129 316.2 284.129 316.377V317.708C284.129 317.886 284.273 318.029 284.45 318.029Z" fill="#3F3D56"/>
<path d="M277.872 318.029H280.519C280.696 318.029 280.84 317.886 280.84 317.708V316.377C280.84 316.2 280.696 316.056 280.519 316.056H277.872C277.694 316.056 277.551 316.2 277.551 316.377V317.708C277.551 317.886 277.694 318.029 277.872 318.029Z" fill="#3F3D56"/>
<path d="M271.293 318.029H273.94C274.118 318.029 274.261 317.886 274.261 317.708V316.377C274.261 316.2 274.118 316.056 273.94 316.056H271.293C271.116 316.056 270.972 316.2 270.972 316.377V317.708C270.972 317.886 271.116 318.029 271.293 318.029Z" fill="#3F3D56"/>
<path d="M264.715 318.029H267.362C267.539 318.029 267.683 317.886 267.683 317.708V316.377C267.683 316.2 267.539 316.056 267.362 316.056H264.715C264.538 316.056 264.394 316.2 264.394 316.377V317.708C264.394 317.886 264.538 318.029 264.715 318.029Z" fill="#3F3D56"/>
<path d="M258.137 318.029H260.783C260.961 318.029 261.105 317.886 261.105 317.708V316.377C261.105 316.2 260.961 316.056 260.783 316.056H258.137C257.959 316.056 257.815 316.2 257.815 316.377V317.708C257.815 317.886 257.959 318.029 258.137 318.029Z" fill="#3F3D56"/>
<path d="M251.558 318.029H254.205C254.383 318.029 254.526 317.886 254.526 317.708V316.377C254.526 316.2 254.383 316.056 254.205 316.056H251.558C251.381 316.056 251.237 316.2 251.237 316.377V317.708C251.237 317.886 251.381 318.029 251.558 318.029Z" fill="#3F3D56"/>
<path d="M244.98 318.029H247.627C247.804 318.029 247.948 317.886 247.948 317.708V316.377C247.948 316.2 247.804 316.056 247.627 316.056H244.98C244.803 316.056 244.659 316.2 244.659 316.377V317.708C244.659 317.886 244.803 318.029 244.98 318.029Z" fill="#3F3D56"/>
<path d="M238.402 318.029H241.048C241.226 318.029 241.37 317.886 241.37 317.708V316.377C241.37 316.2 241.226 316.056 241.048 316.056H238.402C238.224 316.056 238.08 316.2 238.08 316.377V317.708C238.08 317.886 238.224 318.029 238.402 318.029Z" fill="#3F3D56"/>
<path d="M231.823 318.029H234.47C234.647 318.029 234.791 317.886 234.791 317.708V316.377C234.791 316.2 234.647 316.056 234.47 316.056H231.823C231.646 316.056 231.502 316.2 231.502 316.377V317.708C231.502 317.886 231.646 318.029 231.823 318.029Z" fill="#3F3D56"/>
<path d="M275.898 321.975H301.569C301.747 321.975 301.89 321.832 301.89 321.654V320.323C301.89 320.146 301.747 320.002 301.569 320.002H275.898C275.721 320.002 275.577 320.146 275.577 320.323V321.654C275.577 321.832 275.721 321.975 275.898 321.975Z" fill="#3F3D56"/>
<path d="M203.068 161.095H371.029C371.203 161.092 371.37 161.02 371.492 160.895C371.614 160.77 371.682 160.602 371.682 160.428C371.682 160.253 371.614 160.085 371.492 159.961C371.37 159.836 371.203 159.764 371.029 159.76H203.068C202.894 159.764 202.728 159.836 202.605 159.961C202.483 160.085 202.415 160.253 202.415 160.428C202.415 160.602 202.483 160.77 202.605 160.895C202.728 161.02 202.894 161.092 203.068 161.095Z" fill="#3F3D56"/>
<path d="M359.596 156.35C361.757 156.35 363.51 154.559 363.51 152.35C363.51 150.14 361.757 148.349 359.596 148.349C357.434 148.349 355.681 150.14 355.681 152.35C355.681 154.559 357.434 156.35 359.596 156.35Z" fill="#3F3D56"/>
<path d="M346.073 156.35C348.235 156.35 349.988 154.559 349.988 152.35C349.988 150.14 348.235 148.349 346.073 148.349C343.911 148.349 342.159 150.14 342.159 152.35C342.159 154.559 343.911 156.35 346.073 156.35Z" fill="#3F3D56"/>
<path d="M332.551 156.35C334.713 156.35 336.465 154.559 336.465 152.35C336.465 150.14 334.713 148.349 332.551 148.349C330.389 148.349 328.636 150.14 328.636 152.35C328.636 154.559 330.389 156.35 332.551 156.35Z" fill="#3F3D56"/>
<path d="M210.494 150.068C210.494 150.163 210.512 150.257 210.548 150.344C210.583 150.432 210.636 150.511 210.703 150.579C210.769 150.646 210.848 150.699 210.936 150.736C211.023 150.772 211.116 150.791 211.211 150.792H220.815C221.005 150.787 221.186 150.709 221.319 150.573C221.451 150.437 221.526 150.255 221.526 150.065C221.526 149.875 221.451 149.693 221.319 149.557C221.186 149.421 221.005 149.343 220.815 149.338H211.211C211.019 149.341 210.836 149.419 210.702 149.556C210.568 149.692 210.493 149.877 210.494 150.068Z" fill="#3F3D56"/>
<path d="M210.494 152.798C210.494 152.892 210.512 152.986 210.548 153.074C210.583 153.161 210.636 153.241 210.703 153.308C210.769 153.375 210.848 153.429 210.936 153.465C211.023 153.502 211.116 153.521 211.211 153.521H220.815C221.005 153.517 221.186 153.439 221.319 153.303C221.452 153.167 221.526 152.984 221.526 152.794C221.526 152.604 221.452 152.422 221.319 152.286C221.186 152.15 221.005 152.072 220.815 152.068H211.211C211.019 152.07 210.836 152.148 210.702 152.285C210.568 152.422 210.493 152.606 210.494 152.798Z" fill="#3F3D56"/>
<path d="M210.494 155.521C210.493 155.712 210.568 155.897 210.702 156.033C210.836 156.17 211.019 156.248 211.211 156.251H220.815C221.005 156.246 221.186 156.168 221.319 156.032C221.451 155.896 221.526 155.714 221.526 155.524C221.526 155.334 221.451 155.152 221.319 155.016C221.186 154.88 221.005 154.801 220.815 154.797H211.211C211.116 154.797 211.023 154.817 210.936 154.853C210.848 154.89 210.769 154.943 210.703 155.01C210.636 155.077 210.583 155.157 210.548 155.245C210.512 155.332 210.494 155.426 210.494 155.521Z" fill="#3F3D56"/>
<path d="M213.462 176.614H210.011C208.965 176.614 208.117 177.462 208.117 178.508C208.117 179.554 208.965 180.402 210.011 180.402H213.462C214.509 180.402 215.357 179.554 215.357 178.508C215.357 177.462 214.509 176.614 213.462 176.614Z" fill="#E6E6E6"/>
<path d="M252.932 176.614H249.481C248.435 176.614 247.587 177.462 247.587 178.508C247.587 179.554 248.435 180.402 249.481 180.402H252.932C253.979 180.402 254.827 179.554 254.827 178.508C254.827 177.462 253.979 176.614 252.932 176.614Z" fill="#E6E6E6"/>
<path d="M264.116 176.614H260.664C259.618 176.614 258.77 177.462 258.77 178.508C258.77 179.554 259.618 180.402 260.664 180.402H264.116C265.162 180.402 266.01 179.554 266.01 178.508C266.01 177.462 265.162 176.614 264.116 176.614Z" fill="#E6E6E6"/>
<path d="M242.196 176.299H220.747C219.701 176.299 218.853 177.147 218.853 178.193C218.853 179.239 219.701 180.087 220.747 180.087H242.196C243.243 180.087 244.091 179.239 244.091 178.193C244.091 177.147 243.243 176.299 242.196 176.299Z" fill="#E6E6E6"/>
<path d="M294.823 176.299H273.374C272.328 176.299 271.479 177.147 271.479 178.193C271.479 179.239 272.328 180.087 273.374 180.087H294.823C295.869 180.087 296.718 179.239 296.718 178.193C296.718 177.147 295.869 176.299 294.823 176.299Z" fill="#E6E6E6"/>
<path d="M223.988 185.164H220.536C219.49 185.164 218.642 186.012 218.642 187.058C218.642 188.104 219.49 188.952 220.536 188.952H223.988C225.034 188.952 225.882 188.104 225.882 187.058C225.882 186.012 225.034 185.164 223.988 185.164Z" fill="#E6E6E6"/>
<path d="M263.458 185.164H260.007C258.96 185.164 258.112 186.012 258.112 187.058C258.112 188.104 258.96 188.952 260.007 188.952H263.458C264.504 188.952 265.352 188.104 265.352 187.058C265.352 186.012 264.504 185.164 263.458 185.164Z" fill="#E6E6E6"/>
<path d="M274.641 185.164H271.19C270.143 185.164 269.295 186.012 269.295 187.058C269.295 188.104 270.143 188.952 271.19 188.952H274.641C275.687 188.952 276.535 188.104 276.535 187.058C276.535 186.012 275.687 185.164 274.641 185.164Z" fill="#E6E6E6"/>
<path d="M252.722 184.848H231.272C230.226 184.848 229.378 185.696 229.378 186.742C229.378 187.788 230.226 188.636 231.272 188.636H252.722C253.768 188.636 254.616 187.788 254.616 186.742C254.616 185.696 253.768 184.848 252.722 184.848Z" fill="#E6E6E6"/>
<path d="M305.348 184.848H283.899C282.853 184.848 282.005 185.696 282.005 186.742C282.005 187.788 282.853 188.636 283.899 188.636H305.348C306.395 188.636 307.243 187.788 307.243 186.742C307.243 185.696 306.395 184.848 305.348 184.848Z" fill="#E6E6E6"/>
<path d="M234.513 193.714H231.062C230.016 193.714 229.167 194.562 229.167 195.608C229.167 196.654 230.016 197.502 231.062 197.502H234.513C235.559 197.502 236.407 196.654 236.407 195.608C236.407 194.562 235.559 193.714 234.513 193.714Z" fill="#E6E6E6"/>
<path d="M273.983 193.714H270.532C269.486 193.714 268.637 194.562 268.637 195.608C268.637 196.654 269.486 197.502 270.532 197.502H273.983C275.029 197.502 275.878 196.654 275.878 195.608C275.878 194.562 275.029 193.714 273.983 193.714Z" fill="#E6E6E6"/>
<path d="M285.166 193.714H281.715C280.669 193.714 279.821 194.562 279.821 195.608C279.821 196.654 280.669 197.502 281.715 197.502H285.166C286.213 197.502 287.061 196.654 287.061 195.608C287.061 194.562 286.213 193.714 285.166 193.714Z" fill="#E6E6E6"/>
<path d="M263.247 193.398H241.798C240.751 193.398 239.903 194.246 239.903 195.292C239.903 196.338 240.751 197.186 241.798 197.186H263.247C264.293 197.186 265.142 196.338 265.142 195.292C265.142 194.246 264.293 193.398 263.247 193.398Z" fill="#E6E6E6"/>
<path d="M315.874 193.398H294.425C293.378 193.398 292.53 194.246 292.53 195.292C292.53 196.338 293.378 197.186 294.425 197.186H315.874C316.92 197.186 317.768 196.338 317.768 195.292C317.768 194.246 316.92 193.398 315.874 193.398Z" fill="#E6E6E6"/>
<path d="M245.038 202.264H241.587C240.541 202.264 239.693 203.112 239.693 204.158C239.693 205.204 240.541 206.052 241.587 206.052H245.038C246.085 206.052 246.933 205.204 246.933 204.158C246.933 203.112 246.085 202.264 245.038 202.264Z" fill="#E6E6E6"/>
<path d="M284.508 202.264H281.057C280.011 202.264 279.163 203.112 279.163 204.158C279.163 205.204 280.011 206.052 281.057 206.052H284.508C285.555 206.052 286.403 205.204 286.403 204.158C286.403 203.112 285.555 202.264 284.508 202.264Z" fill="#E6E6E6"/>
<path d="M295.692 202.264H292.24C291.194 202.264 290.346 203.112 290.346 204.158C290.346 205.204 291.194 206.052 292.24 206.052H295.692C296.738 206.052 297.586 205.204 297.586 204.158C297.586 203.112 296.738 202.264 295.692 202.264Z" fill="#E6E6E6"/>
<path d="M273.772 201.948H252.323C251.277 201.948 250.429 202.796 250.429 203.842C250.429 204.888 251.277 205.736 252.323 205.736H273.772C274.819 205.736 275.667 204.888 275.667 203.842C275.667 202.796 274.819 201.948 273.772 201.948Z" fill="#E6E6E6"/>
<path d="M252.932 236.261H249.481C248.435 236.261 247.587 237.109 247.587 238.155C247.587 239.201 248.435 240.049 249.481 240.049H252.932C253.979 240.049 254.827 239.201 254.827 238.155C254.827 237.109 253.979 236.261 252.932 236.261Z" fill="#E6E6E6"/>
<path d="M264.116 236.261H260.664C259.618 236.261 258.77 237.109 258.77 238.155C258.77 239.201 259.618 240.049 260.664 240.049H264.116C265.162 240.049 266.01 239.201 266.01 238.155C266.01 237.109 265.162 236.261 264.116 236.261Z" fill="#E6E6E6"/>
<path d="M294.823 236.577H273.374C272.328 236.577 271.479 237.425 271.479 238.471C271.479 239.517 272.328 240.365 273.374 240.365H294.823C295.869 240.365 296.718 239.517 296.718 238.471C296.718 237.425 295.869 236.577 294.823 236.577Z" fill="#E6E6E6"/>
<path d="M213.462 236.261H210.011C208.965 236.261 208.117 237.109 208.117 238.155C208.117 239.201 208.965 240.049 210.011 240.049H213.462C214.509 240.049 215.357 239.201 215.357 238.155C215.357 237.109 214.509 236.261 213.462 236.261Z" fill="#E6E6E6"/>
<path d="M242.196 236.577H220.747C219.701 236.577 218.853 237.425 218.853 238.471C218.853 239.517 219.701 240.365 220.747 240.365H242.196C243.243 240.365 244.091 239.517 244.091 238.471C244.091 237.425 243.243 236.577 242.196 236.577Z" fill="#E6E6E6"/>
<path d="M223.988 227.711H220.536C219.49 227.711 218.642 228.559 218.642 229.606C218.642 230.652 219.49 231.5 220.536 231.5H223.988C225.034 231.5 225.882 230.652 225.882 229.606C225.882 228.559 225.034 227.711 223.988 227.711Z" fill="#E6E6E6"/>
<path d="M263.458 227.711H260.007C258.96 227.711 258.112 228.559 258.112 229.606C258.112 230.652 258.96 231.5 260.007 231.5H263.458C264.504 231.5 265.352 230.652 265.352 229.606C265.352 228.559 264.504 227.711 263.458 227.711Z" fill="#E6E6E6"/>
<path d="M274.641 227.711H271.19C270.143 227.711 269.295 228.559 269.295 229.606C269.295 230.652 270.143 231.5 271.19 231.5H274.641C275.687 231.5 276.535 230.652 276.535 229.606C276.535 228.559 275.687 227.711 274.641 227.711Z" fill="#E6E6E6"/>
<path d="M252.722 228.027H231.272C230.226 228.027 229.378 228.875 229.378 229.921C229.378 230.967 230.226 231.815 231.272 231.815H252.722C253.768 231.815 254.616 230.967 254.616 229.921C254.616 228.875 253.768 228.027 252.722 228.027Z" fill="#E6E6E6"/>
<path d="M234.513 219.162H231.062C230.016 219.162 229.167 220.01 229.167 221.056C229.167 222.102 230.016 222.95 231.062 222.95H234.513C235.559 222.95 236.407 222.102 236.407 221.056C236.407 220.01 235.559 219.162 234.513 219.162Z" fill="#E6E6E6"/>
<path d="M273.983 219.162H270.532C269.486 219.162 268.637 220.01 268.637 221.056C268.637 222.102 269.486 222.95 270.532 222.95H273.983C275.029 222.95 275.878 222.102 275.878 221.056C275.878 220.01 275.029 219.162 273.983 219.162Z" fill="#E6E6E6"/>
<path d="M285.166 219.162H281.715C280.669 219.162 279.821 220.01 279.821 221.056C279.821 222.102 280.669 222.95 281.715 222.95H285.166C286.213 222.95 287.061 222.102 287.061 221.056C287.061 220.01 286.213 219.162 285.166 219.162Z" fill="#E6E6E6"/>
<path d="M263.247 219.477H241.798C240.751 219.477 239.903 220.325 239.903 221.372C239.903 222.418 240.751 223.266 241.798 223.266H263.247C264.293 223.266 265.142 222.418 265.142 221.372C265.142 220.325 264.293 219.477 263.247 219.477Z" fill="#E6E6E6"/>
<path d="M245.038 210.612H241.587C240.541 210.612 239.693 211.46 239.693 212.506C239.693 213.552 240.541 214.4 241.587 214.4H245.038C246.085 214.4 246.933 213.552 246.933 212.506C246.933 211.46 246.085 210.612 245.038 210.612Z" fill="#E6E6E6"/>
<path d="M284.508 210.612H281.057C280.011 210.612 279.163 211.46 279.163 212.506C279.163 213.552 280.011 214.4 281.057 214.4H284.508C285.555 214.4 286.403 213.552 286.403 212.506C286.403 211.46 285.555 210.612 284.508 210.612Z" fill="#E6E6E6"/>
<path d="M295.692 210.612H292.24C291.194 210.612 290.346 211.46 290.346 212.506C290.346 213.552 291.194 214.4 292.24 214.4H295.692C296.738 214.4 297.586 213.552 297.586 212.506C297.586 211.46 296.738 210.612 295.692 210.612Z" fill="#E6E6E6"/>
<path d="M273.772 210.928H252.323C251.277 210.928 250.429 211.776 250.429 212.822C250.429 213.868 251.277 214.716 252.323 214.716H273.772C274.819 214.716 275.667 213.868 275.667 212.822C275.667 211.776 274.819 210.928 273.772 210.928Z" fill="#E6E6E6"/>
<path d="M230.184 359.059C230.04 359.132 229.895 359.204 229.75 359.27C228.836 359.724 227.915 360.171 226.987 360.611C224.211 361.933 221.4 363.189 218.554 364.38C211.065 367.511 203.38 370.154 195.549 372.292C194.234 364.09 192.957 344.748 191.734 330.523C191.504 327.846 191.273 325.353 191.043 323.15C190.824 320.258 190.409 317.384 189.8 314.548C189.74 314.326 189.654 314.111 189.543 313.91C189.668 315.048 189.8 318.441 189.925 323.15C189.991 325.353 190.05 327.846 190.116 330.523C190.425 344.216 190.747 362.847 191.069 373.456C190.155 373.679 189.234 373.903 188.313 374.113C187.734 374.252 187.149 374.383 186.563 374.508C185.853 374.666 185.142 374.824 184.432 374.968C183.688 375.126 182.945 375.278 182.202 375.422C170.054 377.808 157.703 379.006 145.324 379C144.501 379 143.686 378.993 142.863 378.987C142.613 378.987 142.363 378.98 142.107 378.974C141.383 378.96 140.633 378.947 139.87 378.928C125.24 378.523 110.707 376.429 96.5583 372.686L97.1306 330.523L97.2293 323.15L97.2687 320.355C96.9429 321.254 96.7479 322.196 96.6898 323.15C96.4596 324.946 96.2228 327.491 95.986 330.523C95.0847 342.203 94.1572 361.045 93.1967 371.766C81.8228 368.53 73.5077 365.577 63.114 360.381C62.7126 360.184 62.3048 359.98 61.9035 359.776C61.9759 359.27 62.0548 358.763 62.1272 358.244C63.3047 350.062 61.9167 339.414 63.2192 330.523C64.2125 323.663 65.2387 317.073 66.2715 311.483C67.5214 304.755 68.791 299.467 70.0475 296.896C71.4948 293.93 72.942 291.01 74.3432 288.214C74.9484 287.011 75.5427 285.829 76.1259 284.67C76.4417 284.045 76.7574 283.427 77.0666 282.822C78.4744 280.066 79.8032 277.521 81.0202 275.265C81.8754 273.68 82.6648 272.246 83.3884 270.99C84.237 269.51 84.987 268.287 85.6053 267.36C90.1727 260.438 96.9686 255.284 104.867 252.753L105.064 252.7L105.255 252.779L105.472 252.878L118.01 248.294L123.608 234.818L152.362 233.049L157.007 236.58L159.381 238.389L161.914 240.316L166.572 243.861L167.894 244.269L169.861 244.874L183.313 249.004L183.452 248.945L183.649 248.997C190.836 251.297 197.128 255.78 201.647 261.822C202.095 262.401 202.509 262.999 202.91 263.604C204.002 265.222 205.476 267.78 207.213 270.99C207.93 272.312 208.686 273.746 209.482 275.265C209.962 276.179 214.107 289.109 218.139 302.315C221.909 314.679 225.579 327.287 226.06 330.523C226.145 331.121 226.237 331.726 226.323 332.325C226.869 336.067 227.408 339.835 227.928 343.512C228.698 348.964 229.447 354.225 230.164 358.928C230.171 358.974 230.178 359.013 230.184 359.059Z" fill="#3F3D56"/>
<path opacity="0.2" d="M199.712 311.453L194.122 289.886L189.187 308.496L199.712 311.453Z" fill="black"/>
<path d="M10.4131 311.203C10.7029 312.046 11.2527 312.776 11.9835 313.288C12.7142 313.8 13.5884 314.067 14.4805 314.051L31.9078 313.603C32.8064 313.585 33.6752 313.277 34.3844 312.725C35.0936 312.173 35.605 311.407 35.8422 310.54L38.3083 284.175C39.1833 284.572 40.1358 284.767 41.0962 284.748C42.7812 284.706 44.3805 283.996 45.5421 282.775C46.7037 281.554 47.3326 279.921 47.2902 278.237C47.248 276.552 46.538 274.953 45.3166 273.792C44.0951 272.63 42.4623 272.002 40.7772 272.044C40.3934 272.043 40.0105 272.083 39.6351 272.163C39.2268 271.721 38.7306 271.37 38.1784 271.132C37.6262 270.894 37.0302 270.774 36.4288 270.78L9.62165 271.472C9.39927 271.48 9.17803 271.507 8.9604 271.554C8.37252 271.663 7.81495 271.898 7.32519 272.241C6.83543 272.584 6.42486 273.028 6.12112 273.543C5.81738 274.058 5.62752 274.632 5.5643 275.226C5.50109 275.821 5.566 276.422 5.75466 276.989L10.4131 311.203ZM38.8141 282.385L40.5689 276.103C40.7686 275.377 40.7732 274.611 40.5823 273.883C40.6675 273.883 40.7426 273.843 40.8277 273.843C42.031 273.818 43.195 274.271 44.0646 275.103C44.9342 275.935 45.4383 277.077 45.4665 278.28C45.4946 279.483 45.0446 280.648 44.2149 281.52C43.3852 282.391 42.2437 282.898 41.0406 282.93C40.2627 282.954 39.4929 282.766 38.8141 282.385Z" fill="#2F2E41"/>
<path d="M8.96041 271.554C9.53153 274.819 15.9526 277.114 23.6734 276.715C30.7733 276.388 36.5785 273.895 37.6421 270.941C37.2484 270.825 36.8391 270.771 36.4288 270.78L9.62166 271.472C9.39929 271.48 9.17805 271.507 8.96041 271.554Z" fill="#3F3D56"/>
<path d="M25.0885 296.715C25.1238 296.706 25.1573 296.691 25.1877 296.671L28.9724 294.195C29.0181 294.165 29.0557 294.124 29.0817 294.076C29.1078 294.028 29.1214 293.975 29.1214 293.92C29.1214 293.865 29.1078 293.812 29.0819 293.764C29.0559 293.716 29.0183 293.675 28.9726 293.645L25.0389 291.069C25.0028 291.045 24.9623 291.029 24.9198 291.02C24.8773 291.012 24.8336 291.012 24.7912 291.021C24.7488 291.03 24.7085 291.047 24.6727 291.071C24.6369 291.096 24.6062 291.127 24.5825 291.163C24.5588 291.199 24.5424 291.24 24.5344 291.282C24.5264 291.325 24.5268 291.368 24.5357 291.411C24.5447 291.453 24.5618 291.493 24.5863 291.529C24.6108 291.565 24.6421 291.595 24.6784 291.619L28.1919 293.919L24.8277 296.121C24.7625 296.164 24.7146 296.228 24.6924 296.303C24.6703 296.377 24.6753 296.457 24.7065 296.529C24.7378 296.6 24.7934 296.658 24.8633 296.692C24.9332 296.726 25.013 296.734 25.0885 296.715Z" fill="#6C63FF"/>
<path d="M19.1109 296.991C19.1744 296.975 19.2317 296.94 19.2753 296.891C19.319 296.842 19.3471 296.782 19.356 296.717C19.3649 296.652 19.3542 296.586 19.3253 296.527C19.2964 296.468 19.2506 296.419 19.1938 296.387L15.7053 294.387L19.0771 291.883C19.1117 291.857 19.141 291.825 19.1631 291.788C19.1853 291.751 19.1999 291.71 19.2062 291.667C19.2125 291.625 19.2103 291.581 19.1998 291.539C19.1893 291.497 19.1706 291.458 19.1449 291.423C19.1191 291.389 19.0868 291.36 19.0498 291.337C19.0127 291.315 18.9717 291.301 18.929 291.294C18.8863 291.288 18.8427 291.29 18.8009 291.301C18.759 291.311 18.7197 291.33 18.685 291.356L14.9099 294.159C14.8661 294.192 14.831 294.235 14.8079 294.284C14.7848 294.334 14.7744 294.388 14.7776 294.442C14.7808 294.497 14.7975 294.55 14.8263 294.596C14.855 294.643 14.8949 294.681 14.9423 294.708L18.8664 296.957C18.9405 297 19.0281 297.012 19.1109 296.991Z" fill="#6C63FF"/>
<path d="M24.712 298.886C24.7439 298.878 24.7743 298.865 24.8022 298.847C24.8391 298.825 24.8713 298.796 24.8968 298.761C24.9223 298.726 24.9407 298.686 24.951 298.644C24.9612 298.602 24.9631 298.559 24.9564 298.516C24.9498 298.473 24.9348 298.432 24.9123 298.396L19.5474 289.577C19.5018 289.503 19.4287 289.45 19.3441 289.43C19.2594 289.409 19.1702 289.423 19.0959 289.469C19.0216 289.514 18.9682 289.587 18.9475 289.671C18.9268 289.756 18.9404 289.845 18.9853 289.92L24.3503 298.738C24.3869 298.798 24.4418 298.845 24.5069 298.871C24.572 298.898 24.6439 298.903 24.712 298.886Z" fill="#6C63FF"/>
<path d="M516.498 359.775C516.097 359.979 515.689 360.182 515.288 360.38C504.894 365.575 496.579 368.528 485.205 371.764C484.245 361.044 483.317 342.202 482.416 330.521C482.179 327.489 481.942 324.944 481.712 323.149C481.654 322.194 481.459 321.253 481.133 320.354L481.173 323.149L481.271 330.521L481.844 372.685C467.695 376.427 453.161 378.522 438.532 378.926C437.769 378.946 437.019 378.959 436.295 378.972C436.039 378.979 435.789 378.985 435.539 378.985C434.716 378.992 433.901 378.999 433.078 378.999C417.661 379.01 402.3 377.148 387.333 373.454C387.655 362.846 387.977 344.214 388.286 330.521C388.352 327.845 388.411 325.352 388.477 323.149C388.602 318.44 388.734 315.046 388.859 313.908C388.748 314.11 388.662 314.324 388.602 314.546C387.993 317.382 387.577 320.256 387.359 323.149C387.129 325.352 386.898 327.845 386.668 330.521C385.444 344.747 384.168 364.089 382.853 372.29C375.021 370.153 367.337 367.51 359.848 364.378C355.901 362.734 352.024 360.961 348.218 359.058C348.941 354.323 349.698 349.015 350.474 343.51C351.079 339.242 351.704 334.855 352.342 330.521C353.329 323.826 386.852 251.528 394.753 248.996L394.95 248.943L395.088 249.002L408.541 244.872L410.508 244.267L411.83 243.859L416.488 240.315L419.02 238.388L421.395 236.579L426.04 233.047L454.793 234.816L460.392 248.292L472.93 252.876L473.147 252.778L473.338 252.699L473.535 252.751C481.433 255.283 488.229 260.436 492.797 267.358C493.415 268.285 494.165 269.509 495.013 270.989C495.737 272.245 496.527 273.678 497.382 275.263C498.599 277.519 499.927 280.064 501.335 282.82C501.644 283.425 501.96 284.043 502.276 284.668C502.861 285.826 503.456 287.007 504.059 288.213C505.46 291.008 506.907 293.928 508.354 296.894C509.611 299.466 510.88 304.754 512.13 311.482C513.163 317.072 514.189 323.662 515.183 330.521C516.485 339.413 515.097 350.061 516.275 358.242C516.347 358.762 516.426 359.268 516.498 359.775Z" fill="#3F3D56"/>
<path d="M432.167 228.21C450.637 228.21 465.609 213.241 465.609 194.776C465.609 176.311 450.637 161.342 432.167 161.342C413.698 161.342 398.725 176.311 398.725 194.776C398.725 213.241 413.698 228.21 432.167 228.21Z" fill="#FFB6B6"/>
<path opacity="0.2" d="M378.689 311.453L384.278 289.886L389.214 308.496L378.689 311.453Z" fill="black"/>
<path d="M527.432 297.401C525.432 324.944 527.504 337.072 516.466 359.781C506.422 364.696 495.961 368.706 485.205 371.764C484.087 372.08 482.966 372.387 481.844 372.685C467.695 376.427 453.161 378.522 438.532 378.926C437.769 378.946 437.019 378.959 436.295 378.972C436.039 378.979 435.789 378.985 435.539 378.985C434.716 378.992 433.901 378.999 433.078 378.999C417.661 379.01 402.3 377.148 387.333 373.454C385.833 373.086 384.339 372.698 382.853 372.29C375.022 370.153 367.337 367.51 359.848 364.378C355.901 362.734 352.024 360.961 348.218 359.058C347.356 358.624 346.494 358.19 345.646 357.743C341.284 350.074 338.804 340.748 338.751 329.541C341.771 310.232 520.761 280.748 527.432 297.401Z" fill="#2F2E41"/>
<path opacity="0.2" d="M527.426 302.118C527.529 300.413 527.643 298.651 527.776 296.817C521.106 280.165 342.115 309.648 339.096 328.958C339.104 330.728 339.18 332.446 339.307 334.123C346.619 315.065 516.663 287.043 527.426 302.118Z" fill="black"/>
<path d="M334.3 298.7L348.992 291.356L336.749 258.307L333.522 241.64C333.103 239.475 332.123 237.457 330.679 235.79C329.236 234.122 327.38 232.862 325.297 232.136C323.214 231.409 320.977 231.243 318.809 231.652C316.641 232.061 314.619 233.031 312.944 234.467C310.461 236.594 308.903 239.602 308.597 242.856C308.291 246.109 309.262 249.355 311.304 251.907L323.281 266.875L334.3 298.7Z" fill="#FFB6B6"/>
<path d="M348.992 285.236L329.403 295.028L344.269 341.597C345.336 344.941 347.25 347.953 349.824 350.34C352.399 352.727 355.546 354.409 358.962 355.222C363.174 356.224 367.595 355.86 371.586 354.181C375.576 352.502 378.928 349.596 381.156 345.885L420.576 278.332C423.37 273.677 424.232 268.115 422.979 262.833C421.726 257.551 418.457 252.969 413.869 250.064C411.402 248.502 408.634 247.477 405.744 247.055C402.854 246.633 399.908 246.825 397.098 247.617C394.287 248.409 391.674 249.783 389.43 251.652C387.186 253.52 385.36 255.839 384.072 258.459L360.011 309.716L348.992 285.236Z" fill="#3F3D56"/>
<path d="M137.821 225.903C158.143 225.903 174.617 209.433 174.617 189.116C174.617 168.799 158.143 152.329 137.821 152.329C117.5 152.329 101.025 168.799 101.025 189.116C101.025 209.433 117.5 225.903 137.821 225.903Z" fill="#A0616A"/>
<path d="M101.467 163.765C104.459 159.734 108.759 156.867 112.048 153.075C113.853 150.994 115.352 148.636 117.381 146.773C121.15 143.311 126.422 141.893 131.537 141.716C137.143 141.572 142.705 142.75 147.771 145.154C152.837 147.558 157.266 151.12 160.7 155.553C163.374 153.986 166.048 152.418 168.721 150.851C169.778 153.631 170.834 156.41 171.89 159.19C172.757 158.437 173.863 158.015 175.012 157.998C176.16 157.982 177.277 158.373 178.165 159.102C179.053 159.831 179.654 160.85 179.862 161.979C180.069 163.109 179.87 164.275 179.3 165.272C179.936 163.306 182.852 162.889 184.459 164.188C186.066 165.487 186.497 167.797 186.235 169.847C185.905 172.095 184.911 174.194 183.38 175.873C181.848 177.552 179.849 178.734 177.64 179.269C174.151 180.046 170.09 179.229 167.297 181.46C165.058 183.249 164.382 186.506 162.098 188.235C159.282 190.366 155.302 189.381 151.803 189.852C145.679 190.676 140.831 196.937 141.567 203.07C141.013 201.135 140.431 199.143 139.173 197.571C137.916 195.999 135.798 194.936 133.87 195.514C130.682 196.469 130.16 200.814 130.933 204.05C132.982 212.632 140.747 226.505 140.747 226.505C130.664 230.482 118.652 226.722 110.872 219.176C103.092 211.631 99.0401 200.946 97.2751 190.254C95.7784 181.188 95.9905 171.145 101.467 163.765Z" fill="#2F2E41"/>
<path d="M474.077 213.207C481.077 197.161 477.111 182.395 468.577 174.562V174.555C465.222 167.038 460.762 161.237 455.657 159.876C453.19 158.291 450.796 156.43 448.138 155.482C446.9 155.019 445.581 154.811 444.261 154.871C442.94 154.931 441.645 155.258 440.455 155.831L439.099 155.469C437.948 152.53 436.6 152.47 435.1 154.404C429.324 151.714 424.121 150.51 419.489 150.51C404.386 150.51 395.452 163.296 393.084 178.751L405.708 182.112L410.096 175.121L408.069 182.743L415.036 184.591C425.64 198.396 412.951 230.24 396.866 247.958C400.695 246.899 404.508 246.005 408.306 245.275L422.108 225.045L413.556 243.46C417.996 242.809 423.66 243.433 429.85 244.69C431.936 241.967 433.034 238.336 431.955 235.101C433.719 238.513 434.936 242.182 435.56 245.972C448.625 249.162 466.446 250.799 476.05 252.009C483.81 249.477 483.831 220.875 474.077 213.207Z" fill="#2F2E41"/>
<path d="M478.631 158.625C483.759 170.104 473.412 175.041 463.934 174.901C455.37 174.775 448.091 168.76 447.654 160.208C447.444 156.101 448.874 152.079 451.63 149.027C454.387 145.974 458.243 144.142 462.351 143.932C470.905 143.495 475.138 150.806 478.631 158.625Z" fill="#2F2E41"/>
<path d="M240.756 345.483L232.309 331.398L260.393 310.097L272.07 297.772C273.587 296.171 275.497 294.995 277.611 294.364C279.725 293.732 281.967 293.666 284.114 294.172C286.262 294.678 288.238 295.739 289.847 297.248C291.456 298.758 292.64 300.662 293.281 302.773C294.232 305.9 293.931 309.274 292.44 312.183C290.95 315.092 288.388 317.308 285.294 318.364L267.149 324.557L240.756 345.483Z" fill="#A0616A"/>
<path d="M246.86 345.018L233.71 355.975L230.165 358.928L229.75 359.27C228.836 359.724 227.915 360.171 226.987 360.611C224.211 361.933 221.4 363.19 218.554 364.38C211.065 367.511 203.38 370.154 195.549 372.292C194.063 372.7 192.569 373.088 191.069 373.456C190.155 373.679 189.234 373.903 188.313 374.113C187.734 374.252 187.149 374.383 186.563 374.508C185.853 374.666 185.142 374.824 184.432 374.968C183.689 375.126 182.945 375.278 182.202 375.422C180.202 373.52 178.609 371.23 177.521 368.693C176.433 366.156 175.873 363.424 175.873 360.664C175.873 360.486 175.873 360.302 175.88 360.118L177.992 305.972L178.926 281.973C179.07 276.546 181.331 271.39 185.226 267.608C189.122 263.825 194.342 261.716 199.773 261.73C200.404 261.73 201.029 261.763 201.647 261.822C202.095 262.401 202.509 262.999 202.91 263.604C204.002 265.222 205.476 267.781 207.213 270.99C207.93 272.312 208.686 273.746 209.482 275.265C209.962 276.179 214.107 289.109 218.139 302.315L216.363 316.107L213.153 340.967L226.323 332.325L235.598 326.235L236.697 328.07L239.558 332.844L245.084 342.052L246.86 345.018Z" fill="#3F3D56"/>
<path d="M239.651 329.543C239.644 330.661 239.618 331.759 239.558 332.844C239.421 335.838 239.074 338.818 238.519 341.762C237.611 346.707 235.991 351.494 233.71 355.975C233.408 356.573 233.085 357.165 232.756 357.744C231.908 358.191 231.046 358.625 230.184 359.059C230.04 359.132 229.895 359.204 229.75 359.27C226.086 361.092 222.354 362.795 218.554 364.38C211.065 367.512 203.38 370.154 195.549 372.292C194.063 372.7 192.569 373.088 191.069 373.456C188.142 374.179 185.186 374.835 182.202 375.422C170.054 377.808 157.703 379.006 145.324 379C144.501 379 143.686 378.993 142.863 378.987C142.613 378.987 142.363 378.98 142.107 378.974C141.383 378.961 140.633 378.947 139.87 378.928C125.24 378.523 110.707 376.429 96.5583 372.686C95.4334 372.39 94.3129 372.083 93.1967 371.766C82.4414 368.707 71.9799 364.697 61.9364 359.783C50.898 337.073 52.9701 324.946 50.9703 297.402C55.0752 287.149 124.523 294.39 177.992 305.972C192.503 309.115 205.831 312.581 216.363 316.107C227.244 319.743 235.131 323.44 238.223 326.912C238.945 327.631 239.442 328.545 239.651 329.543Z" fill="#2F2E41"/>
<path opacity="0.2" d="M50.9742 302.118C50.8721 300.413 50.7579 298.651 50.6247 296.817C57.2951 280.165 236.285 309.648 239.305 328.958C239.297 330.728 239.221 332.446 239.094 334.123C231.781 315.065 61.7381 287.043 50.9742 302.118Z" fill="black"/>
</g>
<defs>
<clipPath id="clip0_30_2">
<rect width="579" height="379" fill="white"/>
</clipPath>
</defs>
</svg>
