<svg width="48" height="48" viewBox="0 0 48 48" fill="none" xmlns="http://www.w3.org/2000/svg">
<path d="M38.34 15.66C38.549 15.8687 38.7148 16.1165 38.8279 16.3894C38.941 16.6622 38.9993 16.9546 38.9993 17.25C38.9993 17.5453 38.941 17.8378 38.8279 18.1106C38.7148 18.3835 38.549 18.6313 38.34 18.84L25.59 31.59C25.3813 31.799 25.1335 31.9648 24.8606 32.0779C24.5878 32.191 24.2953 32.2493 24 32.2493C23.7046 32.2493 23.4122 32.191 23.1394 32.0779C22.8665 31.9648 22.6187 31.799 22.41 31.59L9.66 18.84C9.23831 18.4183 9.0014 17.8464 9.0014 17.25C9.0014 16.9547 9.05956 16.6623 9.17256 16.3895C9.28557 16.1167 9.4512 15.8688 9.66 15.66C9.8688 15.4512 10.1167 15.2856 10.3895 15.1726C10.6623 15.0596 10.9547 15.0014 11.25 15.0014C11.8464 15.0014 12.4183 15.2383 12.84 15.66L24 26.817L35.16 15.66C35.3687 15.451 35.6165 15.2852 35.8894 15.1721C36.1622 15.059 36.4546 15.0007 36.75 15.0007C37.0453 15.0007 37.3378 15.059 37.6106 15.1721C37.8835 15.2852 38.1313 15.451 38.34 15.66Z" fill="#393E46"/>
</svg>
