<svg width="48" height="48" viewBox="0 0 48 48" fill="none" xmlns="http://www.w3.org/2000/svg">
<path d="M29.34 38.34C28.9181 38.7614 28.3462 38.998 27.75 38.998C27.1537 38.998 26.5819 38.7614 26.16 38.34L13.41 25.59C12.9886 25.1681 12.752 24.5963 12.752 24C12.752 23.4038 12.9886 22.8319 13.41 22.41L26.16 9.66002C26.5868 9.26279 27.1509 9.04648 27.7339 9.05655C28.3168 9.06662 28.8732 9.30229 29.286 9.71402C29.6977 10.1268 29.9334 10.6832 29.9434 11.2661C29.9535 11.8491 29.7372 12.4132 29.34 12.84L18.18 24L29.34 35.16C29.7613 35.5819 29.998 36.1538 29.998 36.75C29.998 37.3463 29.7613 37.9181 29.34 38.34Z" fill="white"/>
</svg>
