<svg width="458" height="230" viewBox="0 0 458 230" fill="none" xmlns="http://www.w3.org/2000/svg">
<path d="M367.238 40.0506C321.653 40.0506 324.499 59.819 324.499 59.819L324.55 80.2996H368.051V86.4484H307.272C307.272 86.4484 278.102 83.1402 278.102 129.135C278.102 175.131 303.562 173.5 303.562 173.5H318.757V152.156C318.757 152.156 317.938 126.696 343.81 126.696H386.956C386.956 126.696 411.196 127.088 411.196 103.269V63.8852C411.196 63.8852 414.877 40.0506 367.238 40.0506ZM343.251 53.8234C344.279 53.8225 345.297 54.0243 346.247 54.4173C347.197 54.8102 348.06 55.3866 348.787 56.1135C349.514 56.8404 350.09 57.7034 350.483 58.6533C350.876 59.6032 351.078 60.6213 351.077 61.6492C351.078 62.6772 350.876 63.6952 350.483 64.6451C350.09 65.595 349.514 66.4581 348.787 67.1849C348.06 67.9118 347.197 68.4882 346.247 68.8812C345.297 69.2741 344.279 69.4759 343.251 69.475C342.223 69.4759 341.205 69.2741 340.256 68.8812C339.306 68.4882 338.443 67.9118 337.716 67.1849C336.989 66.4581 336.412 65.595 336.019 64.6451C335.626 63.6952 335.425 62.6772 335.426 61.6492C335.425 60.6213 335.626 59.6032 336.019 58.6533C336.412 57.7034 336.989 56.8404 337.716 56.1135C338.443 55.3866 339.306 54.8102 340.256 54.4173C341.205 54.0243 342.223 53.8225 343.251 53.8234Z" fill="url(#paint0_linear_4_27)"/>
<path d="M368.532 218.682C414.117 218.682 411.271 198.914 411.271 198.914L411.22 178.434H367.719V172.285H428.498C428.498 172.285 457.667 175.593 457.667 129.597C457.667 83.6015 432.207 85.2327 432.207 85.2327H417.013V106.576C417.013 106.576 417.832 132.036 391.959 132.036H348.814C348.814 132.036 324.574 131.645 324.574 155.464V194.849C324.574 194.849 320.893 218.682 368.532 218.682H368.532ZM392.519 204.911C391.491 204.912 390.473 204.71 389.523 204.317C388.573 203.924 387.71 203.348 386.983 202.621C386.256 201.894 385.68 201.031 385.287 200.081C384.894 199.131 384.692 198.113 384.693 197.085C384.692 196.057 384.894 195.039 385.287 194.089C385.679 193.139 386.256 192.276 386.983 191.549C387.71 190.822 388.573 190.246 389.523 189.853C390.473 189.46 391.491 189.258 392.519 189.259C393.547 189.258 394.565 189.46 395.515 189.852C396.464 190.245 397.328 190.822 398.054 191.549C398.781 192.276 399.358 193.139 399.751 194.089C400.144 195.038 400.345 196.056 400.344 197.084C400.345 198.112 400.144 199.13 399.751 200.08C399.358 201.03 398.781 201.893 398.054 202.62C397.328 203.347 396.464 203.923 395.515 204.316C394.565 204.709 393.547 204.912 392.519 204.911Z" fill="url(#paint1_linear_4_27)"/>
<path d="M33.1988 203.006L20.5594 61.25H159.441L146.784 202.983L89.9156 218.75L33.1988 203.006Z" fill="#E44F26"/>
<path d="M90 206.701L135.956 193.961L146.767 72.8431H90V206.701Z" fill="#F1662A"/>
<path d="M90 125.414H66.9937L65.4075 107.611H90V90.2244H46.4062L46.8225 94.8931L51.0919 142.801H90V125.414ZM90 170.566L89.9212 170.589L70.56 165.363L69.3225 151.498H51.8681L54.3038 178.79L89.9212 188.679L90 188.656V170.566Z" fill="#EBEBEB"/>
<path d="M89.9381 125.414V142.801H111.347L109.333 165.352L89.9381 170.583V188.673L125.584 178.79L125.842 175.854L129.926 130.083L130.354 125.414H89.9381ZM89.9381 90.2244V107.611H131.934L132.283 103.708L133.076 94.8931L133.493 90.2244H89.9381Z" fill="white"/>
<g clip-path="url(#clip0_4_27)">
<path d="M133 20C133 8.9543 141.954 0 153 0H293C304.046 0 313 8.95431 313 20V160C313 171.046 304.046 180 293 180H153C141.954 180 133 171.046 133 160V20Z" fill="#F7DF1E"/>
<path d="M180.329 150.421L194.103 142.085C196.761 146.796 199.178 150.783 204.977 150.783C210.535 150.783 214.04 148.609 214.04 140.152V82.6376H230.955V140.391C230.955 157.911 220.685 165.885 205.702 165.885C192.17 165.885 184.315 158.877 180.328 150.42M240.143 148.608L253.916 140.634C257.542 146.555 262.254 150.905 270.59 150.905C277.6 150.905 282.069 147.4 282.069 142.567C282.069 136.768 277.477 134.713 269.744 131.331L265.517 129.517C253.312 124.323 245.217 117.798 245.217 104.024C245.217 91.3366 254.883 81.6701 269.987 81.6701C280.741 81.6701 288.474 85.4163 294.031 95.2031L280.86 103.662C277.96 98.4663 274.82 96.4125 269.986 96.4125C265.032 96.4125 261.891 99.5541 261.891 103.662C261.891 108.736 265.032 110.791 272.281 113.933L276.51 115.745C290.889 121.908 298.984 128.19 298.984 142.326C298.984 157.551 287.022 165.888 270.952 165.888C255.245 165.888 245.096 158.396 240.142 148.609" fill="black"/>
</g>
<defs>
<linearGradient id="paint0_linear_4_27" x1="2003.72" y1="1646.74" x2="10902.4" y2="10456.7" gradientUnits="userSpaceOnUse">
<stop stop-color="#387EB8"/>
<stop offset="1" stop-color="#366994"/>
</linearGradient>
<linearGradient id="paint1_linear_4_27" x1="2871.59" y1="2831.63" x2="12427.8" y2="11865.4" gradientUnits="userSpaceOnUse">
<stop stop-color="#FFE052"/>
<stop offset="1" stop-color="#FFC331"/>
</linearGradient>
<clipPath id="clip0_4_27">
<rect width="180" height="180" fill="white" transform="translate(133)"/>
</clipPath>
</defs>
</svg>
