<svg width="60" height="60" viewBox="0 0 60 60" fill="none" xmlns="http://www.w3.org/2000/svg">
<rect width="60" height="60" rx="10" fill="#791B0F"/>
<path d="M28.552 46.368C31.576 45 33.268 42.588 33.268 38.772C33.268 32.796 29.164 29.52 22.324 29.52H15.556V54H20.596V47.916H22.324C22.792 47.916 23.296 47.88 23.764 47.808L27.796 54H33.628L28.552 46.368ZM20.596 43.524V33.948H22.18C26.212 33.948 28.084 35.316 28.084 38.772C28.084 42.228 26.284 43.524 22.18 43.524H20.596ZM44.7253 54.324C49.5133 54.324 53.0773 51.84 53.0773 47.304C53.0773 43.092 50.6653 41.22 46.3813 39.384L45.1213 38.844C42.9613 37.908 42.0253 37.296 42.0253 35.784C42.0253 34.56 42.9613 33.624 44.4373 33.624C45.8773 33.624 46.8133 34.236 47.6773 35.784L51.6013 33.264C49.9453 30.348 47.6413 29.232 44.4373 29.232C39.9373 29.232 37.0573 32.112 37.0573 35.892C37.0573 39.996 39.4693 41.94 43.1053 43.488L44.3653 44.028C46.6693 45.036 48.0373 45.648 48.0373 47.376C48.0373 48.816 46.7053 49.86 44.6173 49.86C42.1333 49.86 40.7293 48.564 39.6493 46.8L35.5453 49.176C37.0213 52.092 40.0453 54.324 44.7253 54.324Z" fill="white"/>
</svg>
