<svg width="675" height="420" viewBox="0 0 675 420" fill="none" xmlns="http://www.w3.org/2000/svg">
<g clip-path="url(#clip0_31_7)">
<path d="M516.796 415.251C508.154 407.651 502.905 395.645 504.282 383.958C505.658 372.27 514.184 361.526 525.244 359.044C536.304 356.562 548.911 363.433 552.27 374.676C554.119 352.999 556.249 330.413 567.323 311.952C577.351 295.236 594.718 283.275 613.541 281.136C632.363 278.996 652.18 287.078 663.919 302.539C675.658 318.001 678.532 340.479 670.311 358.23C664.254 371.307 653.096 381.039 641.405 388.956C603.627 414.325 558.317 424.641 513.811 418.007L516.796 415.251Z" fill="#F2F2F2"/>
<path d="M645.306 287.526C629.775 300.691 615.528 315.416 602.769 331.486C582.801 356.551 566.643 384.653 554.858 414.813C553.995 417.013 557.428 417.971 558.281 415.795C577.564 366.779 608.348 323.576 647.817 290.138C649.589 288.636 647.064 286.036 645.306 287.526Z" fill="white"/>
<path d="M217.293 413.186C229.163 402.747 236.373 386.258 234.482 370.205C232.591 354.152 220.88 339.395 205.69 335.986C190.499 332.577 173.183 342.014 168.569 357.457C166.03 327.683 163.104 296.661 147.894 271.305C134.122 248.346 110.267 231.918 84.4147 228.979C58.5621 226.04 31.3427 237.14 15.2194 258.377C-0.903954 279.613 -4.85168 310.487 6.44067 334.868C14.7593 352.829 30.0853 366.196 46.143 377.07C97.3729 411.764 160.923 426.233 221.393 416.971" fill="#F2F2F2"/>
<path d="M40.7845 237.755C62.116 255.838 81.6855 276.062 99.2098 298.136C116.737 320.186 132.168 343.954 145.285 369.105C152.617 383.214 159.204 397.729 165.016 412.585C166.201 415.607 161.486 416.922 160.314 413.934C150.02 387.743 137.284 362.665 122.29 339.059C107.368 315.539 90.289 293.581 71.2931 273.493C60.549 262.137 49.213 251.404 37.3365 241.344C34.9022 239.281 38.3702 235.709 40.7845 237.755Z" fill="white"/>
<path d="M484.526 419.081H201.336V116.68C201.336 52.3425 251.629 0 313.448 0H372.414C434.233 0 484.526 52.3425 484.526 116.68V419.081Z" fill="#F2F2F2"/>
<path d="M425.56 419.08H201.336V116.68C201.274 92.0275 208.775 67.9977 222.747 48.0897C223.262 47.3591 223.775 46.6379 224.305 45.9247C231.063 36.7001 239.105 28.5762 248.166 21.8211C248.678 21.4335 249.192 21.0526 249.713 20.6717C257.295 15.2111 265.497 10.7471 274.131 7.38147C274.644 7.17921 275.166 6.97654 275.688 6.78216C283.497 3.88176 291.593 1.89501 299.824 0.85857C300.334 0.786018 300.858 0.729246 301.382 0.672472C309.404 -0.22017 317.494 -0.22017 325.516 0.672472C326.038 0.729246 326.562 0.786011 327.079 0.859347C335.308 1.89585 343.401 3.88236 351.208 6.7822C351.73 6.97658 352.252 7.17923 352.767 7.38189C361.295 10.7051 369.4 15.1025 376.901 20.4758C377.422 20.8484 377.944 21.2293 378.458 21.6101C383.536 25.3833 388.307 29.5868 392.721 34.1777C396.26 37.8601 399.558 41.7854 402.593 45.9271C403.121 46.638 403.635 47.3591 404.149 48.0885C418.121 67.9968 425.622 92.027 425.56 116.68V419.08Z" fill="#CCCCCC"/>
<path d="M407.328 283.828C414.184 283.828 419.741 278.044 419.741 270.909C419.741 263.773 414.184 257.989 407.328 257.989C400.472 257.989 394.914 263.773 394.914 270.909C394.914 278.044 400.472 283.828 407.328 283.828Z" fill="#6C63FF"/>
<path d="M461.327 410.023H451.815L447.289 371.839L461.328 371.84L461.327 410.023Z" fill="#FFB8B8"/>
<path d="M445.02 407.194H463.365V419.215H433.47C433.47 417.637 433.769 416.074 434.349 414.615C434.93 413.157 435.781 411.831 436.853 410.715C437.926 409.599 439.199 408.714 440.6 408.109C442.002 407.505 443.503 407.194 445.02 407.194Z" fill="#2F2E41"/>
<path d="M508.654 410.023H499.142L494.617 371.839L508.656 371.84L508.654 410.023Z" fill="#FFB8B8"/>
<path d="M492.348 407.194H510.692V419.215H480.798C480.798 417.637 481.096 416.074 481.677 414.615C482.257 413.157 483.108 411.831 484.181 410.715C485.253 409.599 486.526 408.714 487.928 408.109C489.329 407.505 490.831 407.194 492.348 407.194Z" fill="#2F2E41"/>
<path d="M413.61 273.468C412.926 272.419 412.471 271.226 412.278 269.974C412.084 268.722 412.157 267.441 412.49 266.221C412.824 265.002 413.41 263.873 414.209 262.915C415.007 261.956 415.997 261.192 417.11 260.675L449.444 167.923L465.355 176.96L428.436 265.597C429.146 267.6 429.126 269.805 428.379 271.793C427.632 273.782 426.21 275.416 424.382 276.386C422.555 277.356 420.449 277.595 418.463 277.057C416.478 276.519 414.751 275.242 413.61 273.468Z" fill="#FFB8B8"/>
<path d="M503.795 290.897C502.738 290.266 501.827 289.401 501.126 288.364C500.424 287.327 499.95 286.143 499.736 284.895C499.522 283.646 499.573 282.364 499.887 281.139C500.201 279.913 500.769 278.774 501.551 277.802L491.534 179.686L509.641 180.547L513.804 277.057C515.286 278.533 516.197 280.524 516.363 282.652C516.529 284.78 515.94 286.897 514.706 288.603C513.472 290.309 511.68 291.485 509.669 291.908C507.659 292.33 505.569 291.97 503.795 290.897Z" fill="#FFB8B8"/>
<path d="M474.91 150.743C485.434 150.743 493.966 141.863 493.966 130.91C493.966 119.957 485.434 111.078 474.91 111.078C464.385 111.078 455.854 119.957 455.854 130.91C455.854 141.863 464.385 150.743 474.91 150.743Z" fill="#FFB8B8"/>
<path d="M503.674 268.582H446.224L446.293 268.117C446.396 267.421 456.532 198.319 449.056 175.712C448.306 173.491 448.372 171.059 449.241 168.885C450.111 166.711 451.722 164.948 453.765 163.936C464.45 158.7 484.961 152.251 502.272 167.9C504.82 170.241 506.809 173.167 508.083 176.445C509.357 179.724 509.88 183.267 509.612 186.792L503.674 268.582Z" fill="#6C63FF"/>
<path d="M457.258 208.531L431.393 203.07L443.517 173.17C444.242 170.273 446.042 167.795 448.521 166.278C451 164.761 453.956 164.329 456.74 165.077C459.524 165.826 461.91 167.693 463.374 170.269C464.837 172.845 465.259 175.92 464.547 178.82L457.258 208.531Z" fill="#6C63FF"/>
<path d="M490.384 218.671L488.829 181.575C487.65 174.601 491.486 168.009 497.385 166.931C503.285 165.858 509.047 170.694 510.232 177.719L516.076 212.382L490.384 218.671Z" fill="#6C63FF"/>
<path d="M501.763 264.141C511.007 300.781 512.015 347.367 509.521 398.182L497.107 396.567L474.607 299.67L462.194 398.182L448.228 397.375C444.056 344.057 439.994 298.285 446.676 268.178L501.763 264.141Z" fill="#2F2E41"/>
<path d="M487.466 146.237C483.911 150.178 477.309 148.063 476.845 142.679C476.809 142.261 476.812 141.84 476.853 141.422C477.092 139.038 478.416 136.872 478.099 134.354C478.027 133.727 477.803 133.13 477.447 132.619C474.615 128.671 467.965 134.385 465.291 130.811C463.652 128.619 465.579 125.169 464.321 122.719C462.66 119.487 457.742 121.081 454.658 119.311C451.227 117.341 451.432 111.862 453.691 108.529C456.446 104.464 461.275 102.296 466.045 101.983C470.815 101.67 475.552 103.012 480.005 104.818C485.064 106.871 490.081 109.707 493.195 114.337C496.981 119.967 497.346 127.537 495.452 134.121C494.3 138.126 490.369 143.019 487.466 146.237Z" fill="#2F2E41"/>
<path d="M651.71 419.6H78.8955C78.6509 419.599 78.4167 419.498 78.244 419.318C78.0713 419.137 77.9744 418.893 77.9744 418.639C77.9744 418.384 78.0713 418.14 78.244 417.96C78.4167 417.78 78.6509 417.678 78.8955 417.677H651.71C651.954 417.678 652.189 417.78 652.361 417.96C652.534 418.14 652.631 418.384 652.631 418.639C652.631 418.893 652.534 419.137 652.361 419.318C652.189 419.498 651.954 419.599 651.71 419.6Z" fill="#3F3D56"/>
<path d="M363.879 331.469H263.017C261.689 331.477 260.412 330.936 259.467 329.964C258.521 328.993 257.984 327.672 257.974 326.289V91.984C257.984 90.6016 258.521 89.2798 259.467 88.3086C260.412 87.3375 261.689 86.7963 263.017 86.8038H363.879C365.208 86.7963 366.485 87.3375 367.43 88.3086C368.375 89.2798 368.912 90.6016 368.922 91.984V326.289C368.912 327.672 368.375 328.993 367.43 329.964C366.485 330.936 365.208 331.477 363.879 331.469Z" fill="white"/>
<path d="M368.922 162.618H257.974V164.233H368.922V162.618Z" fill="#CCCCCC"/>
<path d="M369.31 254.759H258.362V256.374H369.31V254.759Z" fill="#CCCCCC"/>
<path d="M294.44 86.8038H292.888V332.277H294.44V86.8038Z" fill="#CCCCCC"/>
<path d="M333.233 86.8038H331.681V332.277H333.233V86.8038Z" fill="#CCCCCC"/>
</g>
<defs>
<clipPath id="clip0_31_7">
<rect width="675" height="420" fill="white"/>
</clipPath>
</defs>
</svg>
